{"glyphs":{"0":{"ha":419,"x_min":-108,"x_max":504,"o":"m -101 181 q -85 230 -94 200 q -61 292 -76 260 q 47 510 -12 404 q 179 717 106 617 q 272 823 222 775 q 375 919 322 871 q 403 939 388 931 q 433 953 418 947 q 480 953 461 964 q 501 915 499 943 q 503 889 504 901 q 500 863 503 876 q 481 786 493 824 q 451 713 468 749 q 301 445 385 572 q 111 201 218 318 q 58 151 86 174 q -1 110 31 128 q -24 99 -12 103 q -86 106 -64 86 q -101 181 -108 126 m 463 881 q 463 901 465 886 q 438 914 458 924 q 413 899 422 908 q 381 873 396 886 q 350 844 365 860 q 294 781 321 813 q 238 718 267 750 q 205 685 222 701 q 175 649 188 669 q 149 610 163 629 q 125 569 136 590 q 39 417 81 493 q -35 258 -3 340 q -51 211 -43 235 q -64 164 -58 188 q -57 137 -67 144 q -28 139 -47 129 q -6 151 -17 144 q 17 168 6 158 q 81 224 51 193 q 138 288 110 256 q 283 487 217 383 q 403 703 349 590 q 440 787 424 743 q 463 881 456 831 z "},"1":{"ha":279,"x_min":-78,"x_max":447,"o":"m 163 746 q 151 738 157 742 q 139 731 146 733 q 127 726 133 726 q 118 732 121 725 q 117 744 115 738 q 121 756 118 750 q 129 765 124 761 q 138 772 135 769 q 263 870 201 822 q 389 967 325 918 q 400 976 394 972 q 413 982 406 979 q 440 979 429 992 q 447 965 447 972 q 443 951 447 958 q 425 925 435 935 q 276 718 343 826 q 133 474 201 596 q 7 219 64 351 q -10 172 -3 196 q -28 125 -18 149 q -44 90 -35 107 q -69 57 -54 72 q -78 80 -78 68 q -75 101 -78 92 q -61 156 -68 129 q -43 207 -54 182 q 46 401 -4 307 q 151 588 96 494 q 232 717 190 654 q 314 847 274 781 q 318 854 317 851 q 322 863 319 857 q 317 867 321 863 l 163 746 z "},"2":{"ha":521,"x_min":-104,"x_max":594,"o":"m -49 97 q -27 97 -37 97 q -6 99 -17 97 q 188 119 92 110 q 379 140 283 129 q 417 139 399 143 q 456 125 435 135 q 417 107 436 113 q 376 99 397 101 q 209 82 293 90 q 42 65 125 74 q 8 60 25 63 q -29 56 -10 58 q -42 54 -37 56 q -91 69 -78 51 q -89 121 -104 88 q -40 208 -68 167 q 21 289 -11 249 q 113 389 63 342 q 214 483 163 436 q 342 601 278 543 q 465 725 407 658 q 508 780 489 751 q 540 842 528 808 q 544 853 543 847 q 549 865 546 858 q 524 914 556 900 q 493 923 508 921 q 461 924 478 925 q 315 858 381 911 q 233 780 271 822 q 171 685 196 738 q 151 634 158 660 q 146 581 143 608 q 145 567 147 574 q 135 560 143 561 q 120 563 125 557 q 115 579 115 569 q 117 633 113 610 q 147 715 126 676 q 196 786 168 753 q 290 881 239 839 q 407 947 340 924 q 465 960 436 957 q 524 953 494 963 q 577 917 560 943 q 586 854 594 890 q 553 779 575 814 q 506 713 532 744 q 408 608 460 657 q 304 511 357 560 q 198 413 251 461 q 94 313 144 364 q 20 224 54 271 q -42 125 -14 176 q -49 108 -47 114 q -49 103 -50 106 q -49 97 -49 100 z "},"3":{"ha":631,"x_min":-112,"x_max":668,"o":"m -81 167 q -32 104 -65 124 q 43 82 1 85 q 163 100 106 78 q 293 171 233 128 q 399 276 353 214 q 444 368 432 321 q 429 464 457 415 q 393 512 415 492 q 343 546 371 532 q 322 554 332 551 q 301 561 313 557 q 285 567 294 564 q 269 576 276 571 q 256 599 254 585 q 272 625 257 614 q 296 640 283 633 q 319 653 308 646 q 430 713 376 681 q 531 786 483 746 q 564 817 549 801 q 594 850 579 833 q 604 863 600 856 q 614 876 608 869 q 585 940 642 929 q 517 943 551 949 q 449 925 482 938 q 378 894 413 910 q 313 858 344 878 q 163 747 225 814 q 147 738 154 744 q 140 751 139 744 q 144 763 140 757 q 165 790 156 776 q 186 813 174 803 q 241 855 214 835 q 300 890 268 875 q 369 927 333 910 q 442 960 404 944 q 557 981 499 983 q 589 978 574 981 q 618 969 604 976 q 658 932 649 958 q 653 874 668 906 q 615 817 638 842 q 564 768 592 792 q 454 686 513 721 q 335 619 396 651 q 322 614 328 617 q 310 606 317 611 l 338 592 q 378 569 357 581 q 418 543 400 558 q 488 426 476 494 q 451 283 499 358 q 121 44 335 97 q 44 37 82 35 q -28 54 7 39 q -86 92 -60 67 q -106 133 -100 106 q -111 178 -112 160 q -102 199 -110 197 q -81 167 -94 201 z "},"4":{"ha":549,"x_min":-50,"x_max":669,"o":"m 31 419 q 79 425 54 422 q 128 431 104 428 q 210 438 168 433 q 292 444 251 442 q 333 472 321 446 q 451 661 392 568 q 578 847 511 754 q 603 885 590 867 q 632 921 617 903 q 638 929 635 925 q 646 936 640 933 q 654 940 649 939 q 664 942 660 942 q 667 932 665 938 q 667 924 669 926 q 649 893 658 907 q 629 864 639 879 q 506 671 567 767 q 381 476 444 575 q 376 467 378 472 q 369 456 374 461 q 403 453 385 450 q 435 444 421 456 q 397 415 424 419 q 384 411 390 413 q 371 411 378 410 q 342 406 351 414 q 324 382 332 397 q 226 213 274 297 q 138 42 178 129 q 119 8 131 24 q 88 -19 107 -8 q 85 18 81 0 q 100 53 90 36 q 150 153 125 103 q 203 253 175 203 q 239 315 221 285 q 276 376 257 344 q 282 389 279 383 q 289 401 285 394 q 277 402 282 401 q 269 403 272 403 q 131 389 199 396 q -7 375 63 382 q -13 375 -10 375 q -19 374 -17 375 q -46 388 -40 374 q -46 403 -50 396 q -36 418 -42 411 q -21 433 -28 426 q -7 446 -14 439 q 130 578 64 510 q 261 718 196 647 q 322 785 293 751 q 381 854 351 818 q 394 872 389 863 q 407 890 400 881 q 417 902 411 897 q 431 904 424 907 q 440 893 440 901 q 436 878 440 885 q 410 835 426 856 q 317 722 365 776 q 217 614 268 667 q 131 528 175 569 q 43 442 86 486 q 36 434 40 439 q 28 426 32 429 q 29 424 29 425 q 31 419 29 422 z "},"5":{"ha":700,"x_min":-93,"x_max":757,"o":"m 119 553 q 138 556 131 556 q 156 558 146 556 q 297 576 228 574 q 433 560 367 579 q 492 533 465 550 q 535 488 518 515 q 549 403 557 447 q 515 311 542 358 q 449 224 488 263 q 365 154 411 186 q 214 79 290 103 q 56 60 138 56 q -10 72 19 63 q -64 103 -40 81 q -89 138 -85 119 q -82 185 -93 156 q -65 172 -72 179 q -51 157 -57 164 q 57 103 -10 107 q 447 279 281 92 q 501 382 488 328 q 457 503 524 463 q 381 531 422 524 q 294 538 339 538 q 118 510 208 536 q 99 506 107 507 q 82 504 90 504 q 63 536 51 504 q 73 553 67 544 q 85 571 79 561 q 178 706 132 638 q 271 842 224 774 q 278 852 275 846 q 286 864 282 858 q 350 903 310 899 q 500 917 425 906 q 650 942 575 928 q 685 949 668 944 q 717 957 701 953 l 738 961 q 751 960 744 963 q 756 951 757 958 q 751 940 756 946 q 742 932 746 935 q 718 922 731 926 q 693 914 706 917 q 617 898 654 906 q 539 885 579 890 q 445 873 492 878 q 350 863 399 868 q 328 854 336 861 q 311 836 319 847 q 199 665 257 750 q 160 610 179 638 q 119 553 142 583 z "},"6":{"ha":543,"x_min":-62,"x_max":456,"o":"m 163 581 q 190 607 176 600 q 219 614 204 614 q 376 568 307 621 q 429 421 444 514 q 396 323 419 368 q 339 239 372 278 q 229 146 290 182 q 94 97 168 110 q 31 97 61 90 q -26 129 0 103 q -56 181 -50 153 q -60 239 -62 210 q -35 343 -51 294 q 35 488 -7 419 q 124 624 78 557 q 215 745 168 686 q 314 863 261 804 l 411 960 q 446 968 435 983 q 436 935 456 958 q 361 855 399 894 q 288 774 324 815 q 214 676 250 726 q 142 578 178 626 q 78 483 107 532 q 25 385 50 435 q -3 315 10 350 q -18 244 -15 281 q -17 199 -21 219 q 61 136 -3 136 q 110 141 86 135 q 157 157 133 147 q 382 406 331 231 q 386 422 385 414 q 389 439 388 429 q 340 542 397 507 q 286 565 314 558 q 228 574 258 571 q 197 576 213 575 q 163 581 182 578 z "},"7":{"ha":593,"x_min":-14,"x_max":685,"o":"m 622 917 q 596 914 610 914 q 567 913 582 914 q 349 889 458 901 q 131 864 240 876 q 106 863 117 863 q 88 879 94 864 q 99 896 90 892 q 117 903 107 900 q 153 908 135 906 q 189 911 171 910 q 354 931 272 921 q 519 950 436 940 q 567 956 543 953 q 615 961 592 958 q 656 957 639 964 q 680 937 675 951 q 675 904 685 922 q 656 877 664 890 q 636 851 647 864 q 572 780 604 815 q 508 707 540 744 q 385 557 446 632 q 264 407 325 482 q 257 397 260 403 q 250 383 254 392 q 263 383 257 383 q 274 382 268 382 q 353 391 314 388 q 433 397 393 394 q 466 394 457 399 q 486 375 475 390 q 463 358 475 363 q 436 351 451 354 q 338 344 388 349 q 240 336 289 339 q 212 326 222 333 q 190 304 201 319 q 111 189 147 247 q 40 69 75 131 q -8 28 24 36 q -8 60 -14 44 q 4 90 -3 75 q 64 188 35 138 q 125 286 93 238 q 136 301 131 293 q 149 321 142 308 q 128 321 136 321 q 110 318 119 321 q 76 313 92 315 q 42 308 60 311 q 30 308 36 308 q 21 310 24 307 q 7 325 7 314 q 10 335 6 329 q 22 342 15 340 q 59 352 40 349 q 94 358 78 356 q 165 368 126 365 q 187 377 178 371 q 203 393 196 383 q 347 580 274 489 q 499 761 419 671 q 553 821 526 792 q 606 881 579 850 q 617 894 613 888 q 626 907 621 900 q 625 912 626 910 q 622 917 624 914 z "},"8":{"ha":515,"x_min":-62,"x_max":600,"o":"m 229 342 q 210 332 217 336 q 192 322 203 328 q 192 342 193 333 q 194 358 192 350 q 195 376 197 369 q 186 392 193 382 q 153 434 168 411 q 126 482 138 457 q 103 601 100 540 q 140 722 106 661 q 458 967 251 913 q 501 973 481 972 q 543 967 522 974 q 596 885 600 947 q 583 828 594 854 q 556 775 572 801 q 485 675 524 722 q 407 579 447 628 q 336 491 371 535 q 265 403 301 447 q 252 379 251 385 q 265 358 253 374 q 289 319 278 339 q 307 275 300 300 q 260 150 319 203 q 97 74 190 89 q 64 70 81 71 q 31 72 47 69 q -37 107 -12 75 q -61 186 -61 139 q -53 238 -62 214 q -28 286 -43 263 q 32 356 -1 325 q 103 413 65 386 q 117 419 110 415 q 131 424 124 422 q 140 422 135 425 q 149 417 146 419 q 142 397 151 407 q 135 391 139 393 q 125 385 131 389 q 64 335 93 361 q 11 278 35 310 q -6 248 3 264 q -19 217 -14 232 q -17 147 -33 179 q 33 110 -1 115 q 85 110 60 107 q 226 168 163 121 q 267 224 258 196 q 260 289 275 251 q 246 316 254 303 q 229 342 238 329 m 226 414 q 235 426 231 418 q 303 510 269 468 q 371 593 336 551 q 448 686 410 640 q 518 785 486 732 q 541 826 531 804 q 557 872 551 849 q 551 915 563 899 q 513 931 539 931 q 477 931 496 932 q 443 925 458 929 q 172 704 264 865 q 144 555 132 632 q 226 414 156 478 z "},"9":{"ha":521,"x_min":-75,"x_max":550,"o":"m 286 378 q 238 358 261 367 q 188 344 214 349 q 133 344 158 339 q 88 365 107 350 q 58 401 69 379 q 46 453 47 424 q 63 553 42 503 q 319 886 139 758 q 378 921 347 906 q 442 943 408 936 q 512 934 485 953 q 546 874 539 915 q 544 806 550 839 q 528 740 539 774 q 478 624 507 681 q 418 514 450 568 q 333 376 376 443 q 242 242 290 308 q 175 156 210 197 q 96 79 140 115 q 50 52 74 64 q 1 38 26 40 q -24 40 -12 36 q -50 49 -36 44 q -69 60 -64 53 q -72 74 -75 68 q -60 85 -69 81 q -33 85 -50 89 q 65 106 19 68 q 104 139 85 122 q 139 175 124 156 q 214 267 179 219 q 281 365 249 314 q 283 372 282 368 q 286 378 283 375 m 507 844 q 422 899 507 926 q 419 897 421 897 q 413 894 417 897 q 340 856 374 879 q 275 804 307 833 q 194 714 231 763 q 128 611 157 665 q 98 540 111 576 q 86 465 85 504 q 114 399 86 421 q 188 383 142 376 q 254 408 224 390 q 313 449 285 426 q 349 481 332 464 q 376 521 365 499 q 405 573 390 549 q 433 624 419 597 q 475 710 456 667 q 503 803 494 754 l 507 844 z "},"\u0000":{"ha":0,"x_min":0,"x_max":0,"o":""},"\r":{"ha":558,"x_min":0,"x_max":0,"o":""}," ":{"ha":333,"x_min":0,"x_max":0,"o":""},"~":{"ha":464,"x_min":39,"x_max":354,"o":"m 332 531 q 296 510 317 518 q 260 503 275 501 q 233 511 244 504 q 211 529 222 518 l 197 550 q 178 566 186 564 q 156 558 169 568 q 116 531 135 546 q 78 500 97 515 q 69 493 72 497 q 61 486 67 489 q 46 484 53 479 q 42 500 39 489 q 54 524 44 514 q 147 596 93 567 q 225 575 194 618 q 244 552 236 560 q 262 543 253 544 q 281 547 271 542 q 307 565 292 553 q 335 576 324 576 q 350 569 346 576 q 350 551 354 563 q 332 531 346 540 z "},"¤":{"ha":518,"x_min":14,"x_max":461,"o":"m 286 439 q 315 408 301 424 q 343 378 328 393 l 360 354 q 360 345 361 351 q 357 336 360 339 q 338 336 350 333 q 333 338 335 336 q 329 340 332 339 q 291 379 310 360 q 261 424 272 399 q 183 403 222 410 q 101 415 143 397 l 60 369 q 25 358 38 346 q 33 393 14 369 q 53 413 43 404 q 71 433 63 422 q 62 476 64 458 q 65 509 60 493 q 87 544 71 525 q 131 593 103 563 q 107 610 118 601 q 83 628 96 619 q 78 631 81 631 q 74 635 76 632 q 62 650 64 642 q 64 664 60 658 q 78 669 71 671 q 92 664 85 668 q 123 644 108 653 q 153 624 138 635 q 166 617 160 618 q 182 622 172 617 q 205 631 193 626 q 228 640 217 635 q 290 643 264 656 q 338 606 315 631 l 346 597 l 347 597 q 350 596 347 597 q 384 628 368 611 q 418 660 400 644 q 428 670 424 665 q 440 678 433 675 q 456 678 447 683 q 460 663 461 668 q 453 648 457 656 q 443 635 449 640 q 404 595 424 615 q 367 556 385 575 q 359 547 363 551 q 354 536 356 542 q 335 488 350 508 q 300 450 321 468 l 286 439 m 103 471 q 123 467 113 468 q 133 450 133 467 q 140 445 133 447 q 154 443 147 443 q 220 451 189 442 q 279 485 251 461 q 308 524 297 500 q 317 554 318 539 q 304 583 315 569 q 283 601 294 594 q 254 604 271 607 q 114 518 171 588 q 101 496 106 507 q 103 471 97 485 z "},"`":{"ha":376,"x_min":126,"x_max":254,"o":"m 254 846 q 251 844 251 844 q 247 842 250 843 q 181 889 207 860 q 136 956 156 918 q 139 983 126 969 q 145 982 142 982 q 150 981 149 982 q 195 927 172 953 q 239 875 218 901 q 248 860 244 868 q 254 846 251 853 z "},"?":{"ha":801,"x_min":46,"x_max":701,"o":"m 219 681 q 203 667 211 669 q 185 668 194 665 q 138 699 154 675 q 125 756 121 724 q 138 797 128 778 q 163 832 149 815 q 280 938 217 892 q 419 1013 343 985 q 515 1035 467 1029 q 613 1026 563 1042 q 681 978 661 1013 q 692 893 701 943 q 670 834 685 861 q 639 781 656 807 q 565 685 604 731 q 482 594 526 639 q 351 463 415 528 q 221 332 288 399 q 188 297 203 315 q 158 261 174 279 q 136 235 149 246 q 115 221 124 224 q 103 227 106 218 q 113 263 101 236 q 140 302 126 282 q 171 340 153 322 q 264 435 217 389 q 356 529 311 481 q 458 634 408 582 q 556 742 507 686 q 596 795 578 765 q 633 854 614 825 q 645 879 640 865 q 653 908 650 893 q 601 988 661 969 q 481 990 546 1006 q 372 951 422 978 q 275 886 321 924 q 232 847 253 867 q 189 806 211 826 q 169 772 176 789 q 193 694 144 725 q 206 688 200 692 q 219 681 213 683 m 119 88 q 108 58 119 71 q 81 43 96 46 q 57 51 67 43 q 47 74 47 58 q 57 101 46 90 q 85 113 68 113 q 110 108 100 115 q 119 88 119 100 z "},"_":{"ha":565,"x_min":-28,"x_max":394,"o":"m 72 350 q 42 349 57 350 q 11 349 26 349 q -3 349 4 349 q -15 351 -10 349 q -25 367 -28 357 q -15 382 -25 375 q -5 385 -11 385 q 7 386 1 385 q 343 399 176 390 q 382 394 369 400 q 394 381 394 389 q 378 366 393 374 q 339 357 364 358 l 72 350 z "},"]":{"ha":371,"x_min":-158,"x_max":507,"o":"m 450 1004 q 394 999 419 1001 q 342 996 368 997 q 319 995 331 996 q 294 996 307 994 q 274 1000 282 996 q 270 1008 272 1003 q 269 1017 268 1014 q 276 1024 271 1021 q 285 1028 281 1026 l 333 1032 q 396 1038 365 1035 q 457 1046 426 1042 q 499 1039 490 1050 q 490 996 507 1028 q 443 911 467 953 q 396 826 419 869 q 338 721 361 764 q 295 645 314 678 q 261 585 276 613 q 227 526 246 558 q 184 450 208 493 q 125 344 160 407 l -7 110 q -54 81 -22 81 q -96 82 -75 82 q -136 82 -117 82 q -158 100 -158 82 q -150 115 -158 110 q -133 122 -142 121 q -122 124 -128 124 q -108 124 -115 124 q -97 123 -103 124 q -86 122 -92 122 q -62 122 -71 122 q -48 125 -54 122 q -37 135 -42 128 q -24 157 -32 143 q 104 388 40 274 q 235 619 168 503 q 269 681 257 660 q 287 713 281 701 q 297 729 293 724 q 306 745 300 735 q 324 776 313 756 q 358 838 335 797 l 433 968 q 440 985 436 976 q 450 1004 443 993 z "},"\\":{"ha":571,"x_min":36,"x_max":471,"o":"m 117 1011 q 285 549 204 779 q 363 335 325 440 q 436 121 401 229 q 454 58 447 90 q 468 -6 461 26 q 470 -22 471 -12 q 453 -35 469 -31 q 444 -20 447 -28 q 436 -6 440 -12 l 343 279 l 153 796 q 128 860 142 825 q 101 931 115 894 q 72 1002 86 967 q 47 1068 58 1038 q 49 1110 36 1099 q 85 1094 61 1122 l 117 1011 z "},"[":{"ha":278,"x_min":-187,"x_max":483,"o":"m -142 126 q -119 124 -128 125 q -100 124 -110 124 q -47 124 -74 124 q 6 125 -21 125 q 26 124 21 125 q 43 111 31 122 q 31 95 40 100 q 14 88 22 90 q -1 83 7 85 q -17 82 -10 82 l -132 82 q -153 83 -146 82 q -181 103 -175 90 q -176 139 -187 115 q -101 288 -142 217 l 208 833 q 235 882 228 868 q 245 899 243 896 q 247 902 247 903 q 249 905 247 901 q 259 922 251 908 q 286 971 267 936 l 308 1011 q 329 1036 315 1029 q 360 1043 343 1043 l 454 1043 q 476 1036 467 1043 q 481 1028 479 1033 q 481 1019 483 1024 q 476 1012 481 1015 q 468 1007 472 1008 q 458 1004 464 1004 q 446 1004 451 1004 q 399 1006 422 1006 q 350 1008 375 1006 l 350 1007 q 269 863 314 939 q 186 718 224 786 l 3 396 l -119 172 q -131 151 -126 161 q -142 126 -135 142 z "},"Z":{"ha":1226,"x_min":-3,"x_max":1543,"o":"m 1200 904 q 1153 902 1176 903 q 1107 900 1131 901 q 1032 894 1069 897 q 957 889 994 892 q 844 882 900 886 q 729 874 788 878 q 613 866 671 871 q 497 858 556 861 q 469 863 483 858 q 457 882 456 865 q 468 885 463 883 q 479 886 474 886 q 668 903 575 894 q 856 918 761 911 q 963 924 908 922 q 1072 929 1018 926 q 1156 934 1114 932 q 1239 939 1197 936 q 1251 940 1244 940 q 1261 936 1257 939 q 1274 929 1268 933 q 1281 919 1279 925 q 1278 908 1282 915 q 1269 897 1275 900 q 1258 888 1265 890 q 1243 881 1251 885 q 1166 848 1204 864 q 1090 813 1128 832 q 976 756 1032 785 q 863 694 919 726 q 653 566 754 635 q 453 425 551 497 q 267 276 356 354 q 96 114 179 199 q 77 93 86 103 q 58 74 68 83 q 52 65 56 69 q 43 53 49 60 q 67 50 57 50 q 89 53 78 50 q 178 64 133 58 q 265 74 222 69 q 442 94 354 85 q 617 114 529 104 q 789 130 704 124 q 961 142 874 136 q 1321 142 1140 154 q 1396 131 1358 138 q 1474 118 1433 125 q 1518 103 1496 114 q 1543 75 1539 97 q 1526 71 1535 71 q 1507 74 1517 71 q 1438 88 1472 81 q 1367 100 1403 94 q 1304 106 1335 104 q 1243 108 1274 107 q 1149 111 1196 111 q 1056 111 1103 111 q 956 106 1006 108 q 856 101 907 104 q 735 92 794 97 q 615 79 675 86 q 470 64 542 72 q 326 47 399 56 q 196 31 260 39 q 65 17 132 24 q 32 18 47 14 q 4 35 11 21 q 10 64 -3 49 q 38 99 24 82 q 68 132 53 117 q 280 333 168 240 q 511 510 392 425 q 688 630 599 572 q 871 740 778 688 q 1013 814 942 779 q 1158 881 1083 849 q 1180 890 1169 885 q 1200 900 1190 894 l 1200 904 l 1200 904 z "},"Y":{"ha":1157,"x_min":-25,"x_max":1243,"o":"m -25 438 q -19 458 -25 449 q -6 474 -12 467 q 42 520 18 497 q 92 565 67 543 q 263 708 176 639 q 439 844 349 778 q 505 892 471 869 q 571 936 539 915 q 629 961 600 953 q 675 956 657 968 q 692 913 693 943 q 687 872 690 893 q 678 832 683 851 q 647 718 663 775 q 617 603 632 661 q 603 539 610 571 q 599 475 597 507 q 600 458 599 464 q 635 428 606 429 q 674 434 656 426 q 710 451 692 442 q 751 474 731 463 q 792 501 772 486 q 933 615 867 554 q 1063 742 1000 675 q 1126 808 1094 775 q 1189 875 1157 842 q 1201 888 1196 882 q 1215 896 1207 893 q 1238 907 1232 908 q 1243 898 1243 906 q 1238 880 1243 890 q 1226 861 1232 869 q 1159 785 1193 824 q 1093 708 1125 746 q 984 574 1038 642 q 881 436 931 507 q 748 243 813 340 q 624 43 683 146 q 513 -138 546 -94 q 483 -159 479 -182 q 524 -61 488 -136 q 624 114 561 14 q 762 329 690 224 q 913 538 833 435 q 917 546 915 542 q 921 557 919 550 q 881 526 901 542 q 840 494 860 510 q 767 443 804 467 q 689 403 731 419 q 639 393 667 396 q 590 408 610 390 q 567 454 569 425 q 566 510 564 482 q 575 564 568 538 q 599 661 586 613 q 624 758 611 710 q 640 821 632 790 q 656 883 647 851 q 658 900 657 892 q 657 917 658 908 q 638 931 657 936 q 623 925 631 928 q 608 919 615 922 q 540 881 572 903 q 476 835 508 858 q 293 693 383 765 q 115 546 203 621 q 58 495 86 519 q 1 444 31 471 q -10 435 -4 439 q -25 438 -17 431 z "},"X":{"ha":1083,"x_min":-339,"x_max":1211,"o":"m 611 881 q 556 806 582 847 q 551 800 553 803 q 547 794 550 797 q 535 790 539 789 q 529 801 529 796 q 531 810 529 807 q 536 818 533 814 q 566 865 551 842 q 596 910 581 888 q 619 932 607 925 q 643 936 632 942 q 656 915 654 931 q 656 899 657 907 q 651 882 654 890 q 632 799 642 840 q 613 717 622 758 q 605 669 608 693 q 597 619 601 644 q 599 619 599 619 q 603 618 600 618 q 612 626 608 622 q 621 633 615 631 q 775 770 696 706 q 942 889 854 835 q 1024 935 982 914 q 1115 968 1067 957 q 1162 972 1138 974 q 1199 965 1186 971 q 1204 953 1211 960 q 1156 940 1197 946 q 1068 915 1110 933 q 986 874 1026 897 q 700 658 832 782 q 652 615 675 636 q 606 571 629 593 q 593 543 593 560 q 605 363 590 451 q 663 189 619 274 q 908 -43 744 28 q 942 -56 918 -47 q 985 -74 965 -65 q 1011 -89 1004 -82 q 994 -96 1018 -96 q 882 -71 933 -93 q 785 -14 831 -49 q 586 286 636 101 q 565 390 572 338 q 557 494 557 442 q 556 508 557 506 q 553 515 556 511 q 543 506 547 510 q 533 497 539 501 q 428 390 481 444 q 324 283 376 336 q 188 155 257 217 q 43 35 118 93 q -60 -50 -8 -8 q -164 -132 -111 -92 q -212 -165 -187 -150 q -261 -194 -237 -179 q -319 -208 -290 -210 q -333 -206 -326 -208 q -337 -196 -339 -204 q -333 -187 -337 -193 q -325 -182 -329 -182 q -231 -140 -272 -171 q -149 -78 -189 -110 q 3 47 -74 -15 q 154 174 79 108 q 322 330 242 249 q 482 494 403 411 q 515 528 497 511 q 547 563 532 544 q 560 588 557 571 q 580 726 565 658 q 613 863 594 793 q 614 875 614 867 q 611 881 615 876 z "},"W":{"ha":1736,"x_min":-33,"x_max":1990,"o":"m 1068 871 q 996 840 1032 856 q 922 811 960 824 q 762 755 843 782 q 600 703 681 728 q 454 657 526 679 q 307 614 382 635 q 183 586 244 600 q 60 558 122 572 q 33 553 46 554 q 4 553 19 553 q -17 556 -7 550 q -33 579 -26 561 q -22 587 -26 582 q -10 592 -17 592 q 268 651 132 611 q 540 735 404 690 q 731 794 636 763 q 922 860 826 826 q 996 890 958 874 q 1069 924 1033 907 q 1085 930 1076 928 q 1101 933 1093 932 q 1128 923 1121 936 q 1128 889 1136 910 q 1119 862 1125 874 q 1108 836 1114 850 q 1036 702 1072 769 q 964 567 1000 635 q 878 391 921 479 q 793 215 835 303 q 760 139 775 178 q 726 63 744 100 q 722 45 724 53 q 718 31 721 38 q 722 28 719 28 q 724 25 724 28 q 739 37 731 31 q 754 50 747 43 q 834 138 794 94 q 910 226 874 182 q 1071 432 992 329 q 1231 639 1150 535 q 1312 738 1271 689 q 1393 838 1353 788 q 1422 865 1410 856 q 1459 874 1444 883 q 1476 832 1474 864 q 1474 804 1476 818 q 1469 776 1472 790 q 1446 626 1458 700 q 1419 478 1433 553 q 1386 240 1400 358 q 1388 213 1381 226 q 1397 231 1392 221 q 1408 250 1403 240 q 1499 415 1454 333 q 1592 579 1544 497 q 1712 772 1650 679 q 1846 950 1774 864 q 1890 1002 1868 976 q 1936 1051 1913 1028 q 1969 1072 1949 1068 q 1979 1071 1974 1072 q 1988 1065 1985 1069 q 1988 1040 1990 1051 q 1977 1026 1982 1033 q 1965 1010 1972 1018 q 1912 953 1939 982 q 1860 893 1885 925 q 1734 722 1793 813 q 1621 536 1675 632 q 1519 358 1569 449 q 1418 175 1469 267 q 1400 144 1410 160 q 1379 113 1390 128 q 1343 96 1364 88 q 1329 115 1332 103 q 1328 140 1326 128 q 1336 206 1332 174 q 1346 272 1340 238 q 1387 523 1367 399 q 1426 772 1407 647 q 1428 786 1428 779 q 1429 806 1428 793 q 1413 790 1419 797 q 1400 776 1406 783 q 1322 678 1361 728 q 1242 578 1282 628 q 1051 329 1146 453 q 854 90 956 206 q 757 -11 807 35 q 736 -26 747 -21 q 713 -39 725 -32 q 680 -31 693 -44 q 669 7 667 -18 q 674 35 671 21 q 682 63 678 49 q 725 165 704 113 q 769 268 746 217 q 907 549 836 411 q 1051 826 978 688 q 1063 844 1058 835 q 1072 865 1067 854 q 1068 871 1069 868 z "},"V":{"ha":703,"x_min":-28,"x_max":1110,"o":"m 374 883 q 344 832 358 857 q 314 779 329 807 q 242 644 275 713 q 178 507 208 576 q 110 353 142 428 q 50 199 78 278 q 35 153 42 175 q 24 110 29 131 q 22 104 22 107 q 21 96 21 101 q 33 110 28 104 q 42 122 39 115 q 294 442 158 290 q 582 735 431 593 q 908 986 731 878 q 972 1022 940 1006 q 1035 1050 1003 1039 q 1071 1056 1051 1056 q 1100 1053 1090 1057 q 1104 1041 1110 1049 q 1067 1022 1099 1033 q 960 976 1011 1006 q 860 914 908 947 q 622 728 732 829 q 408 517 513 628 q 278 370 343 443 q 154 219 213 297 q 92 132 122 175 q 32 44 61 89 q 20 31 25 38 q 10 18 15 25 q -15 10 -3 7 q -26 29 -26 14 q -26 53 -28 40 q -22 78 -25 65 q 3 168 -12 124 q 35 257 18 213 q 130 482 81 371 q 235 703 179 593 q 292 805 263 754 q 357 904 321 856 q 377 922 371 919 q 385 919 383 925 q 383 903 386 914 q 374 883 379 893 z "},"U":{"ha":951,"x_min":-33,"x_max":1076,"o":"m 467 1010 q 468 993 474 1000 q 458 981 463 986 q 428 935 443 957 q 396 892 413 914 q 221 618 300 760 q 145 478 182 549 q 71 338 108 408 q 33 253 50 296 q 7 164 17 210 q 2 138 4 150 q 3 113 0 125 q 49 72 6 63 q 114 92 83 75 q 200 144 160 115 q 279 206 240 174 q 526 431 408 314 q 753 676 643 547 q 890 842 824 758 q 1025 1008 956 925 q 1047 1032 1032 1021 q 1072 1031 1061 1035 q 1075 1008 1076 1021 q 1070 996 1072 1001 q 1065 985 1068 990 q 921 749 988 868 q 790 507 854 631 q 697 319 742 413 q 618 128 653 226 q 589 31 601 79 q 574 -69 576 -18 q 569 -94 574 -90 q 558 -92 564 -97 q 547 -74 551 -86 q 542 -51 542 -62 q 542 -17 542 -33 q 549 17 543 0 q 599 181 567 99 q 717 449 651 319 q 856 708 783 579 q 871 740 863 724 q 885 771 879 756 q 878 766 882 768 q 872 760 875 764 q 767 638 819 699 q 660 519 715 578 q 540 396 600 456 q 417 278 479 336 q 317 193 368 233 q 217 113 267 153 q 160 73 189 92 q 99 43 131 54 q 76 37 88 40 q 53 31 64 33 q -10 48 13 26 q -33 113 -32 69 q -11 225 -33 165 q 35 347 8 288 q 94 464 63 406 q 176 606 133 536 q 260 747 218 676 q 338 867 296 810 q 429 982 381 925 q 444 1001 436 992 q 467 1010 453 1011 z "},"T":{"ha":658,"x_min":-28,"x_max":1469,"o":"m 93 36 q 114 73 101 57 q 139 108 126 89 q 264 314 201 213 q 390 518 326 415 q 513 708 450 614 q 643 893 575 803 q 651 906 647 900 q 660 918 656 911 q 650 921 651 921 q 452 924 550 922 q 254 928 354 925 q 133 924 192 929 q 13 921 75 919 q -19 926 -10 919 q -26 942 -28 933 q -12 957 -24 950 q 17 964 -1 964 q 156 961 86 963 q 293 958 225 960 q 536 954 415 954 q 602 952 569 953 q 668 951 635 951 q 700 964 688 950 q 721 990 708 981 q 742 993 732 999 q 746 985 746 990 q 743 975 746 979 q 732 954 739 964 q 749 951 739 951 q 935 952 842 951 q 1121 953 1028 953 q 1267 960 1193 954 q 1414 967 1340 967 q 1455 960 1440 967 q 1469 944 1469 953 q 1456 926 1469 935 q 1415 917 1443 918 q 1306 918 1363 915 q 1194 921 1249 921 l 724 921 q 706 916 713 921 q 694 904 700 911 q 602 769 649 835 q 511 632 556 703 q 368 408 438 519 q 228 183 299 296 q 180 95 203 143 q 133 7 157 47 q 115 -7 126 -3 q 96 -8 104 -11 q 85 6 88 -6 q 93 36 82 17 z "},"S":{"ha":990,"x_min":-15,"x_max":1017,"o":"m 344 429 q 299 433 321 432 q 253 436 276 433 q 195 440 225 439 q 136 439 165 442 q 61 411 96 435 q 36 336 19 383 q 52 304 42 318 q 76 275 63 290 q 156 210 113 238 q 249 160 200 182 q 518 111 379 103 q 572 118 546 113 q 624 135 597 124 q 629 136 628 135 q 695 196 682 161 q 701 276 708 231 q 664 379 693 331 q 619 450 642 415 q 575 521 597 485 q 525 603 549 561 q 490 694 501 646 q 532 847 469 783 q 574 882 551 867 q 619 908 596 897 q 751 953 685 938 q 890 964 818 968 q 917 963 903 964 q 943 956 931 961 q 1013 867 1008 935 q 989 771 1017 815 q 964 734 978 753 q 935 700 950 715 q 876 640 907 669 q 815 583 846 611 q 798 568 807 575 q 775 561 789 561 q 776 572 772 568 q 782 579 779 576 q 840 638 811 608 q 897 697 869 667 q 932 742 917 719 q 963 789 947 765 q 979 861 983 822 q 965 903 978 886 q 926 925 953 921 q 864 933 894 933 q 608 864 725 929 q 565 833 586 851 q 524 701 504 781 q 542 647 531 672 q 568 596 553 621 q 613 525 590 560 q 658 454 635 490 q 699 385 681 421 q 728 310 717 349 q 735 282 733 294 q 739 256 738 269 q 722 169 743 206 q 658 110 701 133 q 586 83 624 90 q 510 75 549 76 q 108 199 289 67 q 61 239 83 218 q 21 288 39 260 q -1 388 -15 340 q 74 458 14 435 q 145 476 108 474 q 218 475 182 478 q 333 442 279 471 q 340 438 338 439 q 346 433 343 436 l 346 432 q 344 429 346 431 z "},"R":{"ha":1076,"x_min":-7,"x_max":1272,"o":"m 513 861 q 469 851 485 857 q 351 817 410 836 q 233 774 292 799 q 179 747 206 761 q 125 717 153 732 q 113 709 119 713 q 99 711 106 706 q 107 742 86 721 q 151 772 128 758 q 259 823 204 801 q 371 861 314 844 q 449 884 410 874 q 528 906 488 894 q 547 914 539 908 q 560 931 554 919 q 594 985 578 958 q 629 1039 611 1011 q 633 1047 631 1044 q 636 1053 635 1050 q 647 1065 642 1060 q 660 1063 651 1069 q 665 1053 664 1060 q 665 1040 667 1046 q 653 1016 660 1028 q 640 990 647 1004 q 603 924 624 961 q 618 926 613 926 q 631 928 624 926 q 768 951 700 942 q 907 958 836 960 q 961 955 933 958 q 1017 947 989 951 q 1074 924 1046 942 q 1115 878 1103 907 q 1119 818 1126 850 q 1103 772 1115 793 q 1076 731 1092 750 q 1014 668 1047 696 q 944 617 981 640 q 770 519 861 558 q 583 450 679 479 q 478 422 531 435 q 371 403 425 410 q 331 400 350 400 q 289 397 311 400 q 293 386 292 390 q 296 376 294 382 q 351 282 319 326 q 419 196 383 238 q 638 -11 519 78 q 900 -161 757 -100 q 1013 -199 956 -186 q 1131 -219 1071 -212 q 1194 -224 1163 -224 q 1256 -228 1225 -225 q 1272 -231 1267 -228 q 1236 -244 1256 -240 q 1199 -250 1217 -247 q 1058 -252 1126 -262 q 922 -215 989 -242 q 532 19 704 -135 q 414 135 469 75 q 313 265 358 196 q 283 317 297 290 q 254 368 269 343 q 249 379 251 374 q 244 390 247 385 q 126 236 185 311 q -7 97 68 161 q 96 260 39 183 q 208 415 153 336 q 199 424 203 421 q 190 431 194 426 q 181 440 186 436 q 172 451 175 444 q 168 472 165 463 q 178 488 171 482 q 210 478 192 496 q 225 460 218 467 q 236 477 231 469 q 253 482 242 485 q 260 487 257 482 q 264 494 263 492 q 383 668 324 582 q 503 843 443 754 q 507 850 506 846 q 513 861 508 854 m 285 443 q 337 441 313 439 q 386 447 361 443 q 553 485 472 461 q 715 542 635 510 q 865 616 794 574 q 1000 715 936 658 q 1042 757 1024 735 q 1074 810 1061 779 q 1075 863 1085 840 q 1036 897 1065 886 q 957 914 996 910 q 778 910 865 921 q 601 883 690 900 q 558 857 575 879 q 426 659 492 757 q 294 463 361 561 l 285 443 z "},"Q":{"ha":843,"x_min":4,"x_max":903,"o":"m 881 919 q 871 928 875 925 q 864 939 867 932 q 827 977 850 965 q 775 990 804 989 q 672 979 722 993 q 572 946 622 965 q 394 848 474 908 q 243 714 314 788 q 163 624 200 669 q 96 525 125 578 q 59 441 74 485 q 47 350 44 397 q 78 272 49 301 q 154 240 107 243 q 215 242 186 238 q 274 258 244 247 q 288 272 285 264 q 290 290 292 279 q 294 354 289 322 q 307 418 299 386 q 401 603 336 519 q 480 694 438 651 q 575 772 522 736 q 592 784 582 778 q 613 794 601 790 q 632 805 622 800 q 653 813 642 810 q 732 801 704 824 q 754 726 760 779 q 738 662 750 692 q 711 601 726 632 q 641 492 682 543 q 553 396 600 442 q 460 318 508 354 q 360 254 413 282 q 343 240 344 247 q 346 218 342 233 q 401 133 363 163 q 493 89 440 103 q 586 76 539 76 q 681 78 633 75 q 789 92 735 85 q 903 107 843 100 q 799 60 850 78 q 645 32 722 36 q 490 44 568 28 q 374 99 422 60 q 303 207 326 138 q 300 215 303 210 q 299 217 299 217 q 296 221 299 218 q 286 219 290 219 q 276 217 282 219 q 221 203 249 208 q 163 197 193 197 q 50 242 92 200 q 6 356 8 285 q 19 449 4 404 q 56 536 33 494 q 134 654 89 600 q 231 760 179 708 q 342 859 283 813 q 467 940 400 906 q 599 999 532 975 q 742 1028 667 1022 q 789 1028 765 1031 q 835 1015 813 1026 q 885 964 872 1000 q 890 942 889 953 q 881 919 892 931 m 335 289 q 364 303 357 299 q 557 458 472 365 q 640 560 603 507 q 700 678 678 613 q 711 736 711 708 q 667 774 718 788 q 637 761 651 768 q 608 747 622 754 q 535 689 568 721 q 469 622 501 657 q 386 505 421 567 q 339 368 351 443 q 334 331 336 349 q 335 289 332 313 z "},"P":{"ha":1171,"x_min":14,"x_max":1229,"o":"m 725 910 q 774 914 751 913 q 819 915 796 915 q 951 918 886 919 q 1083 901 1017 917 q 1151 878 1117 893 q 1213 821 1196 857 q 1214 743 1229 785 q 1193 701 1207 719 q 1164 665 1179 682 q 1092 605 1131 632 q 1014 554 1054 578 q 585 396 819 438 q 484 380 535 386 q 378 379 433 374 q 350 365 360 381 q 292 291 321 328 q 233 217 263 254 q 147 117 193 163 q 49 29 101 71 q 34 17 42 22 q 14 6 26 11 q 19 13 17 10 q 24 21 21 17 q 120 144 72 83 q 215 268 168 206 q 264 330 240 299 q 315 396 288 361 q 300 403 304 397 q 274 442 276 421 q 292 482 272 463 q 333 508 311 497 q 381 522 354 519 q 439 561 421 528 q 537 703 488 632 q 635 846 586 774 q 639 853 636 849 q 644 865 642 857 q 608 860 625 861 q 578 856 592 858 q 319 810 446 836 q 63 753 192 783 q 47 750 56 750 q 32 750 39 750 q 28 765 25 761 q 39 774 32 769 q 63 783 51 778 q 90 790 75 788 q 256 828 174 810 q 424 864 339 847 q 540 884 482 875 q 657 903 599 893 q 672 910 668 904 q 681 922 676 915 q 735 1011 708 967 q 788 1099 761 1056 q 799 1116 794 1107 q 810 1135 804 1125 q 817 1141 814 1138 q 825 1146 819 1144 q 839 1144 833 1149 q 844 1131 847 1139 q 842 1118 844 1124 q 836 1108 839 1113 q 784 1015 811 1061 q 729 922 757 969 q 725 910 729 919 m 394 422 q 444 420 422 419 q 490 424 467 421 q 651 454 572 435 q 806 503 731 474 q 956 573 885 535 q 1094 663 1028 611 q 1138 701 1118 681 q 1169 750 1157 722 q 1118 851 1203 821 q 1112 853 1115 853 q 1106 856 1108 854 q 953 879 1026 879 q 846 877 900 879 q 736 875 792 875 q 682 842 700 875 q 574 670 629 754 q 456 503 518 586 q 425 465 440 485 q 394 422 410 444 m 369 476 q 341 462 354 469 q 319 439 328 454 q 329 433 325 436 q 340 426 333 431 q 356 450 347 439 q 374 472 365 461 l 369 476 z "},"O":{"ha":861,"x_min":-21,"x_max":910,"o":"m -3 286 q -12 278 -8 281 q -21 268 -17 275 q -3 315 -6 290 q 1 365 0 340 q 37 546 8 460 q 104 715 65 632 q 185 868 142 794 q 282 1008 229 942 q 314 1045 297 1026 q 349 1079 331 1064 q 367 1089 360 1090 q 388 1075 374 1088 q 273 931 325 1007 q 176 768 221 854 q 97 596 132 683 q 47 408 61 508 q 51 406 51 410 q 67 428 60 417 q 82 451 75 439 q 252 678 161 572 q 439 883 343 783 q 534 972 488 929 q 632 1051 581 1014 q 689 1088 660 1071 q 750 1115 718 1106 q 778 1124 764 1121 q 807 1129 792 1126 q 874 1106 847 1132 q 906 1035 900 1081 q 906 970 910 1001 q 893 908 901 939 q 764 628 847 757 q 631 446 701 532 q 481 283 560 360 q 370 190 428 233 q 246 119 313 147 q 198 104 222 110 q 147 97 174 99 q 25 194 58 104 q 9 237 14 214 q -3 286 4 260 m 43 283 q 44 265 44 272 q 46 251 44 258 q 59 218 53 235 q 74 186 65 201 q 119 149 93 157 q 175 144 144 140 q 251 169 214 151 q 324 211 288 188 q 429 295 379 250 q 526 392 479 340 q 653 542 593 463 q 764 710 714 621 q 817 817 792 763 q 857 933 842 871 q 864 978 861 956 q 865 1024 867 1001 q 848 1070 863 1057 q 806 1081 833 1083 q 757 1072 779 1079 q 713 1050 735 1064 q 580 952 642 1007 q 460 836 518 897 q 254 606 351 725 q 57 365 157 488 q 42 324 42 349 q 42 301 43 311 q 43 283 42 290 z "},"N":{"ha":1201,"x_min":-10,"x_max":1410,"o":"m 1364 972 q 1259 805 1311 889 q 1154 635 1207 721 q 1024 401 1088 518 q 894 165 961 285 q 885 148 892 157 q 875 132 879 139 q 863 120 869 125 q 844 118 856 115 q 827 129 833 121 q 818 147 821 138 q 808 208 813 178 q 800 268 803 239 q 800 507 800 389 q 799 746 800 625 q 801 853 799 799 q 803 960 803 907 q 803 972 804 967 q 803 989 801 978 q 790 977 794 982 q 782 967 785 972 q 705 870 742 918 q 629 776 668 822 q 577 711 604 743 q 521 650 550 679 q 451 570 486 610 q 382 490 417 531 q 263 358 322 424 q 143 226 203 293 q 99 185 121 206 q 54 143 78 164 q 40 133 49 138 q 19 124 31 128 q 6 119 14 121 q -10 125 -1 117 q -1 140 -7 136 q 178 320 94 226 q 347 508 263 414 q 485 667 417 588 q 619 829 553 747 q 689 911 656 869 q 754 996 722 953 q 769 1012 761 1003 q 783 1028 776 1021 q 799 1038 790 1033 q 819 1036 807 1042 q 843 1000 843 1026 q 843 936 842 968 q 842 872 844 904 q 840 733 842 801 q 840 593 839 664 q 838 449 839 519 q 839 306 838 378 q 843 249 840 276 q 847 192 846 221 q 851 191 850 192 q 854 190 853 190 q 865 200 863 196 q 924 313 893 257 q 985 424 954 368 q 1056 549 1021 486 q 1131 675 1092 613 q 1180 763 1154 715 q 1231 860 1206 811 q 1279 957 1256 910 q 1322 1043 1303 1004 q 1365 1097 1343 1085 q 1399 1097 1388 1108 q 1404 1052 1410 1085 q 1364 972 1399 1019 z "},"M":{"ha":1561,"x_min":4,"x_max":1717,"o":"m 1194 69 q 1168 30 1182 49 q 1133 -8 1154 11 q 1134 22 1132 8 q 1140 51 1136 36 q 1155 85 1147 68 q 1171 117 1163 101 q 1324 389 1258 272 q 1440 592 1390 506 q 1523 738 1489 679 q 1580 834 1557 796 q 1616 894 1603 872 q 1636 928 1629 915 q 1643 940 1640 935 q 1649 951 1646 946 q 1644 954 1646 954 q 1612 927 1628 940 q 1581 899 1596 914 q 1508 829 1549 871 q 1426 743 1468 788 q 1345 656 1385 699 q 1275 586 1306 614 q 1165 485 1219 536 q 1056 383 1111 433 q 947 281 1001 332 q 835 181 892 231 q 819 168 828 174 q 801 156 810 163 q 781 147 792 150 q 760 153 771 144 q 749 172 749 161 q 754 193 749 182 q 782 256 765 228 q 876 413 829 335 q 971 571 922 492 q 1059 713 1014 642 q 1149 854 1104 783 q 1156 867 1151 861 q 1167 885 1160 874 q 1156 882 1160 882 q 1150 879 1153 882 q 993 762 1074 817 q 826 656 913 707 q 649 554 738 604 q 469 454 561 504 q 330 381 400 415 q 185 319 260 347 q 119 299 153 308 q 54 279 86 289 q 39 275 47 276 q 21 276 31 274 q 13 281 18 278 q 4 286 8 283 q 10 297 7 292 q 18 303 13 301 q 32 307 25 306 q 47 310 39 308 q 176 354 114 329 q 301 410 239 379 q 615 576 461 489 q 921 761 769 663 q 1069 865 997 810 q 1211 979 1140 919 q 1238 999 1221 989 q 1250 1003 1243 1003 q 1263 996 1257 1003 q 1267 972 1269 986 l 1235 917 q 1063 643 1147 779 q 893 368 979 507 q 851 300 871 333 q 813 232 832 267 q 810 225 810 229 q 808 218 810 221 l 813 213 q 852 248 832 232 q 893 282 872 264 q 1018 403 956 342 q 1147 522 1081 464 q 1263 632 1200 569 q 1391 760 1326 694 q 1519 888 1456 826 q 1636 999 1582 950 q 1652 1011 1643 1006 q 1669 1024 1661 1017 q 1688 1030 1678 1028 q 1707 1025 1697 1032 q 1716 1008 1715 1018 q 1713 988 1717 997 q 1689 940 1701 964 q 1663 893 1676 917 q 1569 735 1618 815 q 1465 558 1521 654 q 1342 342 1408 461 q 1194 69 1275 224 z "},"L":{"ha":1161,"x_min":-6,"x_max":1200,"o":"m 1197 117 q 1099 108 1149 111 q 1000 99 1050 104 q 910 90 956 96 q 819 79 864 85 q 685 58 751 69 q 551 36 618 47 q 419 16 485 25 q 283 0 353 7 q 217 -4 251 -4 q 151 -4 183 -4 l 143 -4 q 82 27 100 1 q 75 93 64 53 q 118 192 92 144 q 215 349 163 274 q 322 500 267 425 q 369 560 346 532 q 414 621 393 589 q 425 643 422 628 q 399 626 413 635 q 371 610 385 618 q 247 533 308 571 q 122 457 186 496 q 76 435 100 444 q 26 414 51 425 q 12 410 19 411 q -6 418 4 410 q 2 424 -1 421 q 10 431 6 428 q 219 549 118 483 q 422 678 319 614 q 528 756 481 713 q 624 849 576 800 q 727 950 674 901 q 842 1040 781 999 q 865 1056 853 1049 q 890 1069 878 1063 q 901 1073 896 1072 q 908 1075 906 1074 q 939 1071 928 1082 q 939 1042 951 1058 q 913 1009 925 1025 q 885 978 900 993 q 763 874 826 922 q 633 783 700 826 q 557 722 592 756 q 490 650 522 689 q 344 467 414 561 q 210 274 275 372 q 165 197 186 236 q 124 118 144 157 q 116 97 119 108 q 108 74 113 86 q 133 38 106 44 q 157 33 146 35 q 179 32 168 31 q 279 38 229 35 q 379 49 329 42 q 599 83 490 64 q 819 118 708 101 q 970 137 894 131 q 1122 149 1046 143 q 1182 143 1154 149 q 1195 137 1190 142 q 1197 117 1200 132 m 706 876 q 752 906 726 888 q 802 946 778 925 q 844 985 826 967 q 868 1015 863 1004 q 706 876 776 951 z "},"K":{"ha":1069,"x_min":-61,"x_max":1382,"o":"m 288 899 q 298 912 294 906 q 308 922 301 918 q 331 937 319 929 q 358 953 343 944 q 438 990 397 972 q 524 1019 479 1008 q 594 1014 567 1032 q 628 953 621 996 q 627 883 633 917 q 610 818 621 850 q 553 680 586 746 q 483 547 521 614 q 440 475 464 510 q 447 472 449 472 q 479 497 464 485 q 511 524 494 508 q 774 727 640 629 q 1050 914 907 825 q 1154 975 1103 946 q 1258 1032 1206 1004 q 1295 1050 1275 1044 q 1335 1063 1315 1056 q 1363 1067 1346 1069 q 1372 1063 1367 1067 q 1379 1056 1378 1060 q 1374 1038 1382 1049 q 1360 1029 1369 1032 q 1260 990 1307 1014 q 1168 939 1213 967 q 908 772 1035 858 q 657 589 781 685 q 644 572 647 581 q 638 551 640 564 q 629 375 625 464 q 633 313 629 343 q 650 256 636 283 q 717 163 674 200 q 821 104 761 125 q 859 92 840 97 q 897 82 878 88 q 842 65 869 68 q 792 74 815 63 q 662 160 713 106 q 594 297 611 214 q 588 393 588 346 q 593 489 588 440 q 595 513 594 500 q 599 540 596 525 q 574 522 585 531 q 551 504 563 513 q 458 424 504 464 q 365 344 411 385 q 326 296 344 326 q 226 154 278 224 q 117 19 175 85 q 67 -29 93 -6 q 14 -76 42 -53 q 1 -85 8 -82 q -15 -92 -7 -89 q -50 -90 -35 -104 q -60 -74 -60 -83 q -58 -56 -61 -65 q -50 -36 -56 -46 q -37 -17 -44 -26 q 30 71 -7 29 q 106 153 67 113 l 301 344 q 342 392 325 367 q 376 443 358 417 q 473 608 425 526 q 556 781 521 690 q 581 854 571 818 q 590 931 592 890 q 586 964 590 947 q 540 989 575 997 q 501 979 521 983 q 463 967 482 975 q 397 935 431 951 q 332 903 364 918 q 313 894 322 897 q 288 899 303 892 m 7 -28 q 96 57 56 11 q 171 154 136 103 q 83 68 124 114 q 7 -28 43 22 z "},"I":{"ha":903,"x_min":-82,"x_max":1192,"o":"m 876 992 q 703 981 786 989 q 533 963 619 974 q 453 951 493 957 q 372 940 413 946 q 344 938 358 939 q 318 949 329 936 q 328 965 321 961 q 346 971 336 968 q 419 983 382 978 q 493 994 456 989 q 731 1023 613 1013 q 967 1038 849 1033 q 1027 1040 997 1039 q 1086 1042 1057 1040 q 1158 1040 1132 1043 q 1188 1030 1185 1036 q 1169 1017 1192 1024 q 1093 1006 1146 1010 q 1020 1000 1057 1001 q 947 996 983 999 q 911 979 924 996 q 784 797 844 893 q 665 608 724 700 q 527 399 596 503 q 388 189 458 294 q 372 163 381 179 q 353 131 364 147 q 333 99 343 114 q 314 75 322 83 q 305 68 310 72 q 293 58 300 64 q 340 58 318 58 q 383 60 363 58 q 572 62 479 60 q 758 63 665 64 q 854 50 857 60 q 757 29 851 40 q 675 24 717 26 q 593 22 633 22 q 462 21 526 22 q 331 17 397 19 q 208 15 268 15 q 86 14 149 14 q 25 13 56 13 q -35 10 -6 13 q -62 11 -54 8 q -82 25 -71 14 q -69 44 -79 40 q -47 47 -58 47 q 8 51 -19 50 q 61 53 35 51 q 152 54 107 54 q 242 56 197 54 q 254 56 249 56 q 263 57 260 57 q 329 149 297 99 q 392 251 361 199 q 451 354 422 303 q 510 450 481 406 q 678 713 593 578 q 860 971 764 849 q 866 979 863 974 q 876 992 869 985 z "},"J":{"ha":1460,"x_min":-21,"x_max":1385,"o":"m 1094 529 q 1113 529 1104 529 q 1129 532 1121 529 q 1231 551 1181 542 q 1335 569 1282 560 q 1353 571 1343 572 q 1372 567 1363 569 q 1384 553 1383 563 q 1374 538 1385 543 q 1360 531 1368 533 q 1346 528 1353 529 q 1224 505 1285 515 q 1103 483 1164 494 q 1072 469 1083 479 q 1050 442 1060 460 q 963 287 1008 363 q 864 139 918 211 q 776 38 826 88 q 682 -28 735 -6 q 569 -60 629 -50 q 453 -60 511 -69 q 340 -31 396 -51 q 196 38 265 -1 q 64 131 126 76 q 7 203 26 161 q 33 300 -21 263 q 97 332 61 319 q 226 372 161 356 q 358 400 292 389 q 626 447 493 425 q 896 493 760 469 q 953 503 924 500 q 1011 513 982 507 q 1038 522 1026 515 q 1056 543 1049 528 q 1078 597 1065 565 q 1106 660 1092 628 q 1134 724 1121 693 q 1156 779 1147 756 q 1164 819 1163 799 q 1165 858 1165 839 q 1121 907 1165 899 q 1064 907 1092 911 q 979 883 1021 896 q 894 857 938 869 q 807 826 850 842 q 719 796 764 811 q 713 793 717 794 q 707 792 710 792 q 694 794 701 793 q 686 797 688 794 q 685 811 679 806 q 697 819 690 817 q 718 829 708 828 q 788 856 753 842 q 860 882 824 869 q 943 910 901 896 q 1028 936 985 924 q 1064 945 1046 943 q 1100 949 1082 947 q 1187 915 1158 950 q 1207 819 1215 879 q 1195 776 1204 801 q 1176 723 1186 750 q 1155 671 1165 696 q 1138 628 1144 646 q 1117 581 1128 604 q 1094 529 1106 557 m 1014 465 q 968 460 983 463 q 721 420 843 440 q 475 378 599 400 q 322 349 399 364 q 171 311 246 333 q 120 294 146 303 q 71 274 94 285 q 51 206 19 253 q 72 180 61 192 q 96 157 82 168 q 242 58 165 100 q 406 -7 318 17 q 704 31 563 -53 q 769 85 740 54 q 826 153 799 117 q 919 292 875 221 q 1003 439 963 364 q 1008 450 1006 444 q 1014 465 1010 456 z "},"H":{"ha":1465,"x_min":13,"x_max":1517,"o":"m 1186 514 q 1299 509 1244 513 q 1406 489 1353 506 l 1406 483 q 1353 478 1378 482 q 1300 474 1328 475 q 1240 471 1269 471 q 1178 471 1210 471 q 1142 450 1156 471 q 1000 241 1071 346 q 858 32 929 136 q 828 -10 843 11 q 797 -51 813 -31 q 758 -67 778 -79 q 756 -25 739 -56 q 774 8 763 -6 q 800 38 786 22 q 840 85 822 60 q 876 135 858 110 q 983 292 931 214 q 1089 450 1036 371 q 1094 458 1092 454 q 1100 468 1096 463 q 1088 470 1093 469 q 1079 471 1083 471 q 999 470 1039 471 q 919 471 960 469 q 885 450 894 471 q 828 365 857 408 q 771 282 800 322 q 735 234 754 256 q 696 189 715 213 q 678 166 688 176 q 661 144 669 156 q 656 158 653 151 q 661 171 658 165 q 693 227 678 199 q 726 283 708 256 q 783 370 754 328 q 840 457 811 413 q 842 462 842 460 q 846 468 843 464 q 835 469 839 468 q 826 469 832 469 q 693 469 760 469 q 560 468 626 469 q 366 462 463 465 q 171 456 269 458 q 106 453 138 456 q 40 450 74 451 q 24 451 33 450 q 14 464 14 453 q 21 479 13 475 q 39 485 29 483 q 91 491 65 488 q 140 494 117 494 q 346 502 244 499 q 549 508 447 506 q 854 513 700 513 q 892 535 879 513 q 1003 695 947 615 q 1114 857 1058 775 q 1151 907 1133 882 q 1189 958 1168 932 q 1200 972 1193 965 q 1222 974 1207 978 q 1217 956 1219 964 q 1208 942 1214 949 q 1161 869 1185 906 q 1114 796 1138 832 q 1025 663 1069 729 q 936 529 981 596 q 933 524 935 526 q 929 514 932 521 l 953 514 l 1113 514 q 1129 518 1124 514 q 1142 532 1135 522 q 1249 691 1196 611 q 1356 853 1303 771 q 1415 940 1385 896 q 1474 1029 1444 985 q 1483 1043 1478 1036 q 1500 1044 1489 1050 q 1503 1010 1517 1036 q 1472 958 1488 983 q 1440 907 1457 932 q 1321 723 1381 814 q 1201 540 1261 632 q 1194 529 1197 536 q 1186 514 1192 522 z "},"G":{"ha":1438,"x_min":-10,"x_max":1436,"o":"m 1288 522 q 1236 514 1261 518 q 1186 506 1211 510 q 1164 489 1169 503 q 1131 444 1150 464 q 1038 329 1081 390 q 953 207 996 268 q 900 122 926 169 q 851 42 874 75 q 828 13 839 24 q 810 1 818 1 q 791 10 794 1 q 791 28 788 18 q 801 50 794 39 q 811 68 807 61 q 883 182 843 128 q 956 296 924 236 q 907 267 932 281 q 858 239 882 254 q 670 145 764 186 q 476 81 576 104 q 407 68 442 72 q 339 69 372 64 q 280 111 296 78 q 283 196 264 144 q 310 249 296 225 q 344 300 325 274 q 417 383 379 344 q 499 461 456 422 q 580 529 539 494 q 661 596 621 564 q 672 608 667 603 q 683 618 678 613 l 681 624 q 649 611 664 617 q 617 601 633 606 q 422 540 518 569 q 228 489 325 510 q 135 474 181 479 q 43 463 89 469 q 11 463 28 460 q -3 469 4 464 q -10 489 -10 474 q 2 492 -3 490 q 14 494 7 494 q 210 524 113 501 q 406 578 307 546 q 578 633 492 604 q 749 690 664 663 q 811 717 781 701 q 874 751 842 732 q 1038 857 956 806 q 1207 951 1119 908 q 1285 987 1246 971 q 1365 1018 1325 1003 q 1406 1024 1383 1026 q 1431 1005 1425 1022 q 1422 968 1436 988 q 1397 943 1411 954 q 1369 921 1383 932 q 1274 859 1322 885 q 1176 813 1226 833 q 1040 756 1107 782 q 903 703 972 729 q 847 678 875 692 q 793 644 818 664 q 604 499 696 575 q 428 336 513 424 q 390 289 408 313 q 353 242 371 265 q 335 212 342 228 q 322 178 329 196 q 319 139 313 154 q 344 119 325 124 q 428 118 388 110 q 569 153 499 129 q 708 211 639 178 q 847 282 779 244 q 981 365 914 319 q 1033 408 1007 385 q 1079 458 1060 431 q 1090 473 1085 465 q 1103 492 1096 481 q 1039 481 1069 486 q 978 471 1008 475 q 906 453 942 463 q 835 436 871 444 q 822 435 828 435 q 811 435 817 435 q 804 440 807 436 q 801 446 801 443 q 803 455 801 449 q 808 463 806 461 q 825 472 817 469 q 842 478 833 475 q 1067 521 957 501 q 1288 568 1178 540 q 1353 576 1333 579 q 1370 563 1372 572 q 1347 540 1368 553 q 1288 522 1325 528 m 1361 969 q 1292 946 1340 967 q 1191 897 1243 925 q 1094 842 1139 869 q 1036 800 1049 815 q 1114 826 1064 806 q 1215 874 1164 847 q 1307 926 1265 900 q 1361 969 1349 953 z "},"F":{"ha":1103,"x_min":-15,"x_max":1532,"o":"m 517 586 q 607 586 565 585 q 758 589 683 588 q 908 590 832 590 q 967 588 950 590 q 984 581 985 585 q 969 572 983 576 q 935 563 956 567 q 891 555 915 558 q 847 550 867 551 q 679 546 764 547 q 510 542 594 544 q 483 537 494 542 q 461 518 472 532 q 324 309 386 418 q 196 93 263 200 q 178 63 186 78 q 164 33 171 49 q 149 17 157 24 q 128 8 140 10 q 118 24 118 15 q 121 42 118 33 q 132 67 126 54 q 144 93 138 81 q 219 215 182 154 q 294 338 257 275 q 345 426 321 378 q 400 511 369 474 q 408 523 404 518 q 419 536 413 528 q 370 536 393 536 q 324 533 347 536 q 277 532 300 533 q 231 528 254 531 q 194 543 194 528 q 201 557 194 551 q 225 565 207 563 q 299 572 261 569 q 372 578 336 574 q 405 580 389 579 q 436 582 421 581 q 469 597 457 581 q 522 674 499 633 q 569 754 546 714 q 617 833 592 794 q 674 907 642 872 q 677 913 675 910 q 682 924 679 917 q 620 915 650 919 q 561 906 590 911 q 407 876 483 890 q 253 844 331 863 q 145 817 197 833 q 40 786 93 801 q 14 778 28 783 q -14 783 0 774 q -7 804 -15 799 q 13 813 1 810 q 80 835 46 825 q 147 857 114 846 q 413 919 279 894 q 685 963 546 943 q 714 973 700 967 q 736 996 728 979 q 750 1017 740 1007 q 779 1028 767 1040 q 785 1014 788 1021 q 781 999 783 1007 q 776 989 778 993 q 768 976 774 985 q 819 982 796 979 q 867 988 843 985 q 990 1001 929 994 q 1114 1013 1051 1008 q 1231 1020 1172 1018 q 1349 1024 1290 1022 q 1438 1015 1393 1025 q 1526 990 1482 1006 q 1532 983 1529 990 l 1482 983 q 1303 981 1393 982 q 1126 972 1214 981 q 991 959 1058 965 q 857 946 924 953 q 808 940 833 943 q 758 935 783 938 q 725 913 738 933 q 616 753 671 833 q 517 586 561 674 z "},"E":{"ha":1361,"x_min":-4,"x_max":1660,"o":"m 171 61 q 199 55 186 54 q 226 58 213 56 q 300 69 263 63 q 375 82 338 75 q 561 110 469 96 q 747 139 653 125 q 886 161 817 150 q 1025 183 956 172 q 1131 194 1078 190 q 1238 192 1185 199 q 1221 186 1226 186 q 1067 147 1144 160 q 910 124 989 135 q 736 96 822 108 q 563 69 650 83 q 403 43 482 56 q 244 19 324 31 q 171 18 210 14 q 135 35 144 19 q 133 74 125 50 q 169 146 149 113 q 251 286 210 217 q 333 426 292 356 q 342 443 338 435 q 353 465 347 451 q 338 463 343 463 q 325 461 332 464 q 199 440 261 450 q 72 418 136 429 q 50 413 61 417 q 28 407 39 410 q 13 404 17 404 q 4 408 8 406 q -3 414 0 410 q -2 422 -4 417 q 3 428 0 426 q 35 444 18 440 q 93 460 64 453 q 153 474 122 468 q 256 490 206 482 q 360 504 307 497 q 376 510 371 506 q 389 522 382 514 q 463 648 425 586 q 538 772 500 710 q 582 847 560 811 q 628 919 604 883 q 640 939 633 929 q 654 963 646 949 q 604 958 626 960 q 560 954 582 957 q 463 940 511 947 q 367 925 415 932 q 342 925 353 924 q 334 931 338 926 q 328 940 331 936 q 332 948 328 943 q 339 956 336 953 q 349 959 344 957 q 360 963 354 961 q 492 986 426 976 q 624 1001 557 996 q 646 1003 635 1003 q 668 1006 657 1003 q 685 1013 678 1008 q 703 1024 693 1018 q 722 1008 710 1010 q 746 1008 733 1007 q 830 1013 788 1011 q 915 1015 872 1014 q 1124 1017 1019 1015 q 1332 1017 1228 1018 q 1444 1014 1388 1015 q 1554 1000 1500 1013 q 1606 985 1581 994 q 1654 967 1631 975 q 1660 957 1657 967 l 1607 957 q 1247 974 1425 974 q 886 974 1068 974 q 801 969 844 971 q 717 967 758 968 q 697 963 704 967 q 683 949 690 958 q 567 749 625 847 q 450 549 508 650 q 441 534 444 542 q 431 515 438 526 l 451 515 q 592 524 522 519 q 733 535 663 529 q 939 524 833 543 q 951 515 947 521 q 875 506 914 511 q 799 497 836 501 q 674 489 736 493 q 551 482 613 485 q 488 476 519 479 q 425 472 457 474 q 393 453 404 471 q 290 273 342 361 q 186 94 238 185 q 178 79 182 88 q 171 61 175 71 z "},"D":{"ha":1496,"x_min":-108,"x_max":1443,"o":"m 288 125 q 172 76 231 101 q 62 32 114 50 q -31 8 10 14 q -94 17 -72 1 q -95 20 -94 19 q -96 24 -96 21 q -74 54 -108 39 q 22 88 -39 69 q 158 128 82 106 q 306 181 235 150 q 326 192 317 186 q 343 211 335 199 q 567 557 456 385 q 790 904 678 729 q 798 918 794 911 q 807 935 801 925 q 769 936 786 935 q 733 935 751 938 q 553 915 640 926 q 379 883 467 903 q 363 877 372 881 q 346 888 353 874 q 351 910 343 896 q 374 928 358 925 q 590 968 481 963 q 811 974 700 974 q 831 978 824 974 q 846 993 839 983 q 867 1027 857 1011 q 889 1058 876 1043 q 917 1088 900 1075 q 924 1090 919 1090 q 931 1088 929 1090 q 935 1079 933 1085 q 935 1069 936 1074 q 924 1049 933 1058 q 903 1011 913 1029 q 881 974 893 993 q 947 968 915 971 q 1011 960 979 965 q 1155 934 1083 949 q 1294 893 1226 919 q 1350 868 1324 882 q 1400 831 1376 854 q 1438 760 1432 799 q 1421 682 1443 722 q 1383 631 1406 653 q 1336 589 1360 608 q 1228 514 1283 547 q 1114 453 1172 481 q 947 376 1031 413 q 778 304 864 340 q 584 231 681 265 q 390 161 488 197 q 359 144 371 154 q 336 119 347 135 q 303 65 321 94 q 268 11 286 35 q 232 -26 242 -19 q 222 -25 222 -33 q 229 3 221 -17 q 248 45 238 22 q 269 90 258 68 q 288 125 281 111 m 406 222 q 408 217 408 217 q 424 222 418 218 q 479 240 451 231 q 535 260 507 250 q 799 361 669 310 q 1060 475 929 413 q 1190 543 1126 507 q 1311 628 1253 579 q 1345 660 1329 643 q 1375 696 1361 676 q 1395 757 1400 728 q 1358 808 1390 786 q 1317 833 1339 822 q 1271 854 1294 844 q 1077 905 1175 886 q 878 931 979 924 q 842 911 851 932 q 780 808 811 858 q 717 708 749 757 q 574 487 646 597 q 432 267 503 376 q 419 244 425 256 q 406 222 413 233 z "},"C":{"ha":967,"x_min":3,"x_max":885,"o":"m 814 736 q 812 760 807 751 q 819 781 817 769 q 835 821 826 800 q 846 861 843 842 q 840 915 849 889 q 815 963 832 942 q 774 997 797 983 q 725 1013 751 1010 q 667 1006 696 1014 q 610 986 638 999 q 397 853 494 936 q 259 722 322 790 q 146 571 196 653 q 81 444 108 508 q 47 310 54 381 q 49 243 44 275 q 72 183 53 211 q 130 135 94 147 q 210 126 165 124 q 294 142 253 129 q 376 174 336 156 q 565 273 476 215 q 735 406 654 331 q 790 451 763 429 q 847 493 817 474 q 845 485 846 490 q 842 478 844 481 q 756 371 806 418 q 651 283 707 324 q 496 183 575 226 q 329 113 417 140 q 255 91 293 99 q 178 83 217 83 q 68 120 115 82 q 10 228 21 158 q 8 317 3 272 q 28 406 13 361 q 82 538 49 475 q 160 660 115 601 q 295 813 224 742 q 451 942 367 883 q 556 1002 503 975 q 667 1043 608 1029 q 753 1047 714 1056 q 819 1015 792 1038 q 863 960 847 993 q 881 894 879 928 q 872 822 885 857 q 838 756 860 788 q 828 746 835 750 q 814 736 821 742 z "},"B":{"ha":1581,"x_min":-43,"x_max":1603,"o":"m 1185 969 q 1115 948 1147 958 q 1050 926 1082 938 q 919 876 983 901 q 788 815 854 850 q 731 783 760 800 q 681 742 703 765 q 671 735 678 739 q 660 738 664 731 q 660 750 660 743 q 663 760 660 757 q 674 776 667 769 q 689 790 682 783 q 764 844 724 822 q 844 886 804 867 q 1090 984 965 940 q 1342 1051 1215 1028 q 1438 1065 1390 1060 q 1532 1063 1486 1071 q 1542 1060 1536 1061 q 1556 1057 1549 1058 q 1597 1013 1592 1046 q 1571 943 1603 979 q 1531 903 1553 922 q 1486 865 1508 883 q 1321 763 1406 807 q 1150 679 1236 718 q 1083 651 1117 665 q 1018 621 1050 636 q 999 613 1008 618 q 983 603 990 607 l 983 594 q 1010 589 996 592 q 1038 583 1024 586 q 1152 568 1096 575 q 1265 550 1208 561 q 1337 534 1301 543 q 1407 510 1372 525 q 1415 499 1410 503 q 1426 493 1421 496 q 1445 452 1446 475 q 1422 406 1444 429 q 1382 367 1406 382 q 1336 342 1358 353 q 1216 291 1276 313 q 1097 253 1156 269 q 878 196 988 222 q 657 140 769 169 q 626 128 640 135 q 601 106 613 121 q 566 71 582 86 q 531 39 550 56 q 528 40 529 40 q 526 42 528 40 q 546 78 535 60 q 571 118 557 97 q 416 83 493 101 q 262 47 339 64 q 109 15 185 29 q -43 -6 33 1 l -43 0 q -1 17 -21 10 q 40 32 19 25 q 169 74 104 58 q 301 106 235 90 q 442 140 372 124 q 586 172 513 157 q 606 181 596 176 q 624 196 617 185 q 760 376 692 286 q 896 554 829 465 q 910 583 906 567 q 918 609 911 599 q 933 624 925 619 q 958 643 949 632 q 978 669 968 654 q 1074 806 1026 738 q 1171 946 1122 875 q 1176 955 1174 950 q 1185 969 1178 960 m 678 197 q 696 199 689 199 q 710 200 703 199 q 919 256 815 228 q 1126 313 1022 283 q 1238 349 1183 328 q 1349 399 1293 369 q 1390 431 1369 411 q 1390 458 1407 446 q 1381 465 1386 463 q 1371 471 1375 468 q 1327 484 1347 478 q 1285 497 1307 490 q 1122 526 1204 518 q 956 546 1039 535 q 939 543 944 549 q 925 529 933 538 q 813 375 869 450 q 696 224 756 300 q 689 213 693 218 q 678 197 685 207 m 1038 679 q 1051 684 1047 683 q 1058 686 1054 685 q 1099 706 1078 697 q 1140 725 1119 715 q 1278 792 1210 757 q 1414 871 1347 826 q 1471 911 1443 890 q 1525 956 1499 932 q 1546 972 1536 963 q 1553 997 1556 982 q 1538 1015 1550 1013 q 1517 1017 1526 1017 q 1467 1017 1492 1017 q 1418 1015 1442 1018 q 1342 1003 1381 1011 q 1264 992 1303 996 q 1228 967 1242 988 q 1142 835 1189 901 q 1092 761 1118 799 q 1038 679 1067 724 z "},"A":{"ha":1299,"x_min":-3,"x_max":1422,"o":"m 624 -71 q 629 -34 624 -50 q 644 -3 635 -18 q 706 103 675 50 q 769 210 736 157 q 859 349 814 281 q 950 489 904 418 q 957 500 953 494 q 965 515 961 506 l 938 515 q 865 511 901 514 q 793 508 829 508 q 740 489 764 507 q 614 376 678 431 q 486 265 550 321 q 462 247 475 256 q 436 232 449 239 q 428 231 432 229 q 417 232 424 232 q 419 242 419 236 q 422 250 419 247 q 443 269 433 261 q 464 288 453 278 q 572 384 518 336 q 682 479 626 432 q 694 490 689 483 q 707 506 699 497 q 681 503 692 504 q 658 503 669 503 q 453 493 554 497 q 249 483 353 489 q 147 476 199 481 q 46 469 96 472 q 10 472 29 468 q 4 479 7 475 q -1 488 1 483 q 1 494 -3 490 q 8 500 6 497 q 29 506 15 503 q 279 522 154 515 q 401 531 342 528 q 524 539 461 535 q 626 543 575 542 q 729 546 676 544 q 775 565 756 546 q 1009 779 893 674 q 1243 993 1125 885 q 1306 1055 1275 1025 q 1369 1117 1338 1085 q 1381 1126 1376 1122 q 1392 1133 1385 1131 q 1403 1134 1396 1135 q 1415 1131 1411 1133 q 1420 1121 1418 1128 q 1421 1107 1422 1114 q 1415 1094 1419 1100 q 1406 1081 1410 1088 q 1246 849 1325 964 q 1086 617 1167 735 q 1069 591 1078 606 q 1050 561 1061 576 q 1121 553 1086 557 q 1192 535 1156 550 q 1172 531 1181 532 q 1156 528 1164 529 q 1097 522 1126 525 q 1038 517 1067 519 q 1010 503 1018 517 q 859 265 935 382 q 708 25 783 147 q 688 -6 697 10 q 667 -37 678 -22 q 649 -57 660 -49 q 624 -71 639 -65 m 822 557 q 825 553 822 556 q 897 556 861 554 q 969 557 933 557 q 1011 579 994 557 q 1110 726 1060 654 q 1208 872 1160 799 q 1241 919 1225 896 q 1272 965 1257 942 q 1269 967 1272 967 q 1047 763 1158 865 q 822 557 935 661 z "},"}":{"ha":472,"x_min":-164,"x_max":510,"o":"m 404 1071 q 419 1081 413 1082 q 433 1079 426 1081 q 493 1035 476 1068 q 490 961 510 1001 q 468 917 481 939 q 442 874 456 896 q 408 819 425 846 q 378 765 392 793 q 357 691 356 726 q 388 628 358 656 q 398 602 401 613 q 368 581 394 592 q 288 527 321 560 q 232 451 254 494 q 184 356 207 404 q 138 260 161 308 q 97 184 118 221 q 47 111 75 147 q -19 44 19 71 q -111 10 -58 18 q -131 7 -122 7 q -155 8 -146 4 q -164 19 -164 13 q -133 42 -164 35 l -104 49 q -44 71 -71 54 q 1 113 -18 88 q 57 190 33 150 q 100 274 81 231 q 142 360 121 317 q 186 446 163 403 q 244 533 210 493 q 332 601 279 574 q 338 604 336 603 q 344 608 340 606 q 341 616 342 613 q 338 624 340 619 q 317 690 319 656 q 335 763 314 725 q 368 821 350 792 q 404 878 386 850 q 427 916 415 897 q 450 954 439 935 q 461 1010 469 986 q 422 1054 453 1035 l 406 1064 l 404 1071 z "},"|":{"ha":433,"x_min":-10,"x_max":353,"o":"m 0 -78 q 61 105 31 14 q 124 288 92 196 q 170 424 147 357 q 217 560 193 492 l 321 854 q 326 867 324 861 q 331 875 328 872 q 344 886 339 886 q 353 881 353 886 q 353 871 353 875 q 351 858 351 864 q 349 847 351 853 q 315 744 332 796 q 281 640 299 692 q 221 462 251 550 q 158 283 190 374 q 29 -96 96 93 q 9 -138 18 -126 q -5 -146 0 -150 q -9 -124 -10 -142 q 0 -78 -8 -106 z "},"{":{"ha":374,"x_min":-142,"x_max":633,"o":"m 128 578 q 130 571 131 574 q 132 565 129 568 q 140 491 147 528 q 108 418 132 454 q 58 338 85 378 q 8 257 32 297 q -25 204 -8 231 q -57 150 -42 178 q -75 113 -68 133 q -46 35 -94 57 q -28 24 -36 29 q -22 4 -19 18 q -47 -3 -36 -4 q -72 3 -58 -3 q -118 106 -142 38 q -72 200 -101 156 q -10 297 -40 249 q 53 394 21 346 q 72 426 64 410 q 89 458 79 443 q 93 546 111 503 q 90 553 90 550 q 86 561 89 557 q 113 610 76 592 l 158 628 q 242 677 207 647 q 304 744 278 707 q 354 819 332 782 q 403 897 376 857 q 440 955 421 926 q 486 1007 458 983 q 538 1049 511 1031 q 600 1078 565 1067 q 610 1081 604 1079 q 618 1081 615 1082 q 633 1075 631 1081 q 631 1067 633 1071 q 625 1058 628 1063 q 608 1051 619 1054 q 524 1000 560 1032 q 464 929 488 968 q 428 874 444 901 q 396 818 413 846 q 355 753 376 785 q 306 692 333 721 q 241 635 275 660 q 167 596 207 611 q 148 588 157 592 q 128 578 139 585 z "},"z":{"ha":793,"x_min":-32,"x_max":732,"o":"m 324 644 q 255 635 289 639 q 186 625 221 632 q 92 583 132 614 q 22 506 53 551 q 3 484 13 488 q -13 485 -7 481 q -21 499 -19 489 q -17 517 -22 508 q 52 605 10 569 q 156 656 94 640 q 209 667 182 663 q 264 675 236 672 q 320 683 292 681 q 376 689 349 686 q 388 692 383 690 q 396 690 393 693 q 409 685 403 688 q 418 676 415 682 q 422 663 424 671 q 414 650 419 656 q 404 641 408 646 q 393 633 400 636 q 296 569 344 601 q 199 504 247 536 q 142 467 171 485 q 86 431 114 449 q 81 418 82 429 q 119 422 100 421 q 158 428 139 424 q 214 433 175 429 q 302 440 253 436 q 406 447 351 443 q 509 456 460 451 q 597 463 558 460 q 653 468 636 465 q 694 467 674 469 q 732 446 714 465 q 714 434 724 436 q 693 429 704 432 q 632 423 674 426 q 539 416 590 419 q 430 408 488 413 q 320 400 372 404 q 226 392 268 396 q 165 388 185 389 q 92 376 128 382 q 19 367 57 371 q -22 378 -15 361 q -4 418 -32 399 q 43 451 19 435 q 92 482 67 467 q 200 553 146 518 q 310 624 254 589 q 317 631 313 626 q 326 638 321 635 q 325 641 325 639 q 324 644 325 643 z "},"y":{"ha":339,"x_min":-235,"x_max":368,"o":"m 183 436 q 199 443 193 440 q 210 450 204 446 q 261 478 236 464 q 313 506 286 492 q 342 514 326 514 q 353 510 347 514 q 361 503 358 506 q 350 479 368 490 q 321 464 336 471 q 290 447 306 457 q 218 401 254 424 q 146 354 182 378 q 110 318 124 339 q 81 276 96 297 q -9 149 38 210 q -111 31 -56 88 q -160 -8 -135 8 q -177 -20 -168 -15 q -197 -28 -186 -25 q -224 -22 -212 -31 q -232 4 -235 -14 q -222 38 -232 21 q -176 111 -203 78 q -117 175 -149 144 q -22 263 -69 219 q 74 351 25 307 q 88 369 81 360 q 103 388 96 378 q 149 462 126 424 q 194 539 171 500 q 177 534 183 539 q 165 525 171 529 q 115 490 140 507 q 58 461 89 472 q 40 454 49 454 q -3 465 13 450 q -11 507 -18 479 q -1 533 -7 521 q 11 558 4 546 q 34 596 22 578 q 58 632 46 614 q 74 644 65 640 q 93 636 82 647 q 88 624 90 631 q 81 613 86 618 q 57 568 69 589 q 32 525 44 547 q 27 510 29 518 q 19 490 25 501 q 38 493 31 493 q 53 496 46 493 q 90 518 72 507 q 126 542 108 529 q 171 578 150 560 q 215 615 192 596 q 233 628 224 624 q 257 626 243 633 q 258 581 276 615 q 226 519 243 550 q 194 457 210 489 q 190 450 192 454 q 183 436 188 446 m -15 214 q -65 169 -39 194 q -112 119 -90 144 q -151 72 -135 94 q -174 36 -168 50 q -137 65 -160 44 q -91 113 -114 86 q -47 166 -68 139 q -15 214 -26 193 z "},"x":{"ha":333,"x_min":-121,"x_max":368,"o":"m 128 514 q 167 543 147 529 q 206 572 186 557 q 254 615 226 588 q 303 658 282 643 q 340 675 324 672 q 362 671 356 678 q 360 649 368 664 q 325 614 353 635 q 255 563 289 588 q 185 511 221 538 q 163 494 174 503 q 138 476 151 485 q 108 450 118 465 q 92 417 97 435 q 86 381 88 400 q 81 344 85 363 q 102 342 93 338 q 118 353 111 347 q 197 416 158 385 q 276 479 236 447 q 294 494 286 486 q 313 508 303 501 q 353 519 329 525 q 336 481 354 493 q 272 426 304 453 q 208 371 240 399 q 167 341 189 356 q 124 311 146 326 q 115 306 121 308 q 62 306 83 290 q 43 357 40 321 q 46 380 44 368 q 51 408 47 392 q 35 398 42 401 q 22 390 29 394 q -29 348 -3 369 q -83 307 -56 326 q -99 297 -90 300 q -118 296 -107 293 q -115 315 -121 307 q -101 329 -108 322 q -51 372 -76 351 q 1 415 -25 393 q 27 436 14 426 q 54 457 40 446 q 71 479 67 467 q 84 530 78 504 q 97 583 90 556 q 42 536 68 571 q 31 523 35 529 q 22 508 28 517 q 11 499 18 503 q -3 500 4 496 q -6 526 -15 511 q 0 537 -3 532 q 6 547 3 542 q 40 582 22 564 q 72 617 57 600 q 78 621 75 619 q 83 625 81 622 q 122 629 106 638 q 138 597 138 621 q 134 568 138 582 q 128 539 131 554 q 126 528 128 533 q 124 518 125 524 q 125 516 125 518 q 128 514 125 514 z "},"w":{"ha":492,"x_min":-57,"x_max":510,"o":"m 361 536 q 281 460 319 494 q 241 422 261 440 q 197 386 221 404 q 181 374 190 379 q 161 365 172 369 q 131 371 142 363 q 124 399 121 379 q 129 423 126 410 q 136 447 132 436 q 140 461 139 454 q 142 478 142 468 q 116 455 129 467 q 90 432 103 443 q 17 375 54 400 q -19 360 6 364 q -46 366 -35 357 q -54 392 -57 375 q -51 408 -53 400 q -47 424 -50 417 q -24 473 -36 447 q 1 524 -11 499 q 39 587 21 556 q 76 650 57 618 q 87 665 81 658 q 104 667 93 671 q 107 632 121 661 q 24 486 65 561 q 5 449 14 468 q -15 407 -4 429 q 3 409 -4 404 q 15 419 10 414 q 74 470 44 444 q 132 522 103 496 q 156 543 144 533 q 178 564 167 553 q 181 567 179 565 q 185 572 183 569 q 222 575 210 583 q 226 539 235 563 q 214 517 219 528 q 203 493 208 506 q 187 461 194 478 q 171 428 179 444 q 171 414 171 428 q 188 426 181 421 q 201 438 194 431 q 275 513 239 475 q 349 588 311 550 q 355 597 351 592 q 365 604 358 603 q 378 609 371 607 q 389 608 385 611 q 398 599 394 606 q 400 588 401 593 q 399 565 400 576 q 407 544 397 553 q 448 519 426 524 q 494 518 469 515 q 506 513 501 519 q 507 497 510 506 q 500 487 506 489 q 486 485 494 485 q 417 492 449 483 q 361 536 385 501 z "},"v":{"ha":349,"x_min":-28,"x_max":367,"o":"m 307 614 q 288 590 297 606 q 277 560 279 575 q 282 535 275 546 q 310 524 289 524 l 331 524 q 362 509 357 524 q 343 490 367 494 q 296 485 322 485 q 265 492 276 485 q 249 512 254 500 q 242 538 243 524 q 243 568 242 553 q 166 498 207 532 q 88 432 125 464 q 61 412 75 421 q 32 396 47 403 q -11 397 6 385 q -22 438 -28 410 q -15 476 -19 457 q -3 514 -10 494 q 18 568 7 542 q 42 622 29 594 q 47 633 44 628 q 54 642 49 639 q 67 647 61 649 q 74 636 72 646 q 74 622 75 629 q 71 607 72 614 l 26 488 q 19 462 22 475 q 13 435 15 449 q 15 432 14 433 q 19 428 17 431 q 36 438 28 433 q 51 449 44 442 q 106 496 79 472 q 160 543 132 519 q 188 569 169 551 q 226 608 206 588 q 266 649 246 629 q 301 683 286 669 q 322 691 311 693 q 340 680 333 689 q 346 658 346 671 q 333 636 346 646 l 307 614 z "},"u":{"ha":306,"x_min":-18,"x_max":319,"o":"m 308 493 q 258 464 288 475 q 201 451 228 453 q 156 463 174 450 q 139 506 138 475 q 138 510 139 508 q 136 518 138 513 q 117 504 125 511 q 97 490 108 497 q 68 470 82 481 q 38 453 54 460 q 10 446 24 446 q -18 474 -18 446 q -14 497 -18 486 q 11 540 -4 521 q 42 579 26 560 q 68 585 57 592 q 68 557 79 574 q 53 536 61 546 q 38 515 46 526 q 24 492 33 508 q 37 497 32 496 q 46 500 42 497 q 94 538 69 519 q 142 576 118 557 q 152 585 147 579 q 164 593 157 590 q 176 596 168 596 q 189 593 183 596 q 196 567 206 586 q 190 548 193 557 q 183 531 186 539 q 183 494 176 504 q 203 485 189 485 q 233 490 217 485 q 265 500 250 496 q 284 506 272 501 q 305 513 296 511 q 317 510 314 514 q 308 493 319 507 z "},"t":{"ha":244,"x_min":-49,"x_max":796,"o":"m -1 813 q -41 818 -33 808 q -46 832 -49 828 q -31 845 -42 839 q 8 849 -21 851 q 103 844 54 844 q 201 851 153 844 q 208 858 206 854 q 238 900 228 885 q 256 928 247 915 q 274 955 264 940 q 304 996 285 969 q 317 1010 308 1004 q 335 1010 326 1017 q 339 1000 338 1007 q 340 988 340 993 q 335 976 339 982 q 328 967 331 971 q 306 936 313 946 q 294 917 300 926 q 281 893 289 907 q 251 850 272 879 q 327 842 281 844 q 428 841 374 840 q 540 845 482 842 q 650 854 597 849 q 713 860 683 857 q 761 861 742 863 q 793 847 796 858 q 761 829 790 836 q 692 822 736 825 q 597 817 649 819 q 490 815 546 815 q 383 815 433 814 q 291 815 332 815 q 228 817 250 815 q 178 750 204 786 q 128 676 153 714 q 83 603 104 639 q 47 539 63 568 q 22 484 35 514 q 6 431 10 454 q 14 398 3 408 q 58 401 25 388 q 93 418 74 407 q 133 442 113 429 q 174 470 154 456 q 210 499 193 485 q 221 508 217 503 q 232 515 225 513 q 247 523 240 521 q 260 517 253 525 q 262 501 265 508 q 251 486 258 493 q 222 463 243 478 q 174 431 201 447 q 117 398 147 414 q 61 372 88 382 q -5 369 14 356 q -26 408 -24 382 q -18 467 -28 435 q 1 522 -8 499 q 40 600 18 561 q 87 676 63 639 q 135 749 111 714 q 179 815 160 785 q 85 813 133 814 q -1 813 38 813 z "},"s":{"ha":304,"x_min":-115,"x_max":318,"o":"m 117 515 q 135 545 129 528 q 139 576 142 563 q 124 594 136 589 q 88 585 111 599 q 64 567 76 578 q 43 542 51 556 q 34 515 35 529 q 46 492 33 501 q 75 463 60 478 q 106 436 90 449 q 185 468 146 454 q 264 506 224 482 q 294 517 281 515 q 308 515 301 517 q 318 503 315 513 q 304 485 314 490 q 285 478 294 481 q 239 460 265 469 q 186 441 213 451 q 138 418 160 431 q 106 392 115 406 q 68 351 94 369 q 8 319 39 332 q -60 301 -24 306 q -99 304 -78 300 q -108 311 -104 306 q -112 324 -111 317 q -110 333 -115 331 q -99 340 -104 336 q -27 390 -65 368 q 60 426 11 411 q 51 434 56 431 q 42 443 46 438 q 23 460 32 451 q 7 478 14 468 q -8 519 -8 497 q 8 560 -8 540 q 60 601 32 585 q 124 622 89 618 q 179 599 167 629 q 183 568 188 583 q 168 540 179 553 q 147 520 157 526 q 122 507 138 514 q 119 511 121 510 q 117 515 118 513 m -49 344 q -49 326 -58 328 q -20 333 -39 325 q 22 358 -1 342 q 65 392 46 374 q 4 380 39 392 q -49 344 -31 368 z "},"r":{"ha":299,"x_min":-56,"x_max":317,"o":"m 236 465 q 210 474 219 467 q 194 492 200 481 q 184 515 188 503 q 178 540 181 528 q 154 560 169 560 q 123 551 139 560 q 93 528 107 542 q 71 507 79 514 q -4 417 22 467 q -17 399 -8 406 q -35 390 -26 392 q -49 392 -43 388 q -56 408 -56 396 q -53 419 -56 415 q -47 429 -50 424 q 4 524 -21 476 q 56 618 29 571 q 74 643 63 632 q 81 647 76 646 q 89 646 86 649 q 96 631 99 640 q 90 607 96 621 q 72 571 81 589 q 57 533 64 553 q 71 544 68 542 q 97 566 85 556 q 121 585 108 576 q 158 601 138 599 q 213 571 200 611 q 217 550 215 560 q 221 531 218 540 q 231 510 224 515 q 254 507 238 506 q 269 508 261 507 q 283 508 276 508 q 310 503 303 510 q 311 487 317 496 q 287 471 306 478 q 236 465 268 464 z "},"q":{"ha":313,"x_min":-174,"x_max":276,"o":"m 167 539 q 130 515 149 529 q 96 493 111 501 q 60 477 78 483 q 21 471 43 471 q -7 485 1 471 q -8 518 -15 499 q -2 531 -6 524 q 8 543 1 538 q 84 602 42 579 q 178 628 126 625 q 200 626 193 628 q 211 624 207 625 q 222 619 215 622 q 232 628 228 624 q 242 636 236 633 q 256 640 249 639 q 269 635 263 642 q 276 621 276 629 q 269 606 275 613 q 265 600 268 603 q 190 506 224 556 q 125 404 156 456 q 26 242 75 322 q -71 79 -22 163 q -85 54 -75 72 q -104 15 -94 36 q -117 -14 -111 0 q -122 -36 -122 -28 q -117 -46 -122 -44 q -96 -37 -111 -47 q -21 13 -60 -15 q 53 64 18 42 q 94 83 69 75 q 133 92 118 92 q 146 84 147 93 q 110 53 144 75 q 12 -8 61 22 q -87 -67 -37 -37 q -101 -73 -94 -71 q -115 -78 -108 -75 q -158 -72 -143 -86 q -165 -29 -174 -57 q -155 3 -160 -14 q -140 35 -150 19 q -71 159 -106 97 q 0 282 -36 221 q 58 375 28 329 q 115 467 88 421 q 138 496 119 472 q 167 539 156 519 m 67 507 q 123 541 90 518 q 196 599 156 564 q 53 536 111 594 q 33 502 25 508 q 67 507 42 496 z "},"o":{"ha":289,"x_min":-42,"x_max":315,"o":"m 164 510 q 196 515 181 513 q 226 519 211 517 q 254 524 238 522 q 283 528 271 525 q 294 528 290 528 q 304 525 297 528 q 312 517 308 522 q 314 507 315 513 q 308 500 314 504 q 300 496 303 496 q 274 491 286 493 q 249 488 263 489 q 197 478 222 482 q 146 469 171 475 q 121 456 131 467 q 73 410 92 428 q 28 383 54 392 q -8 381 8 378 q -33 400 -25 385 q -36 442 -42 415 q -6 510 -31 469 q 37 560 13 538 q 89 606 61 583 q 113 620 100 614 q 142 628 125 626 q 178 620 165 631 q 189 586 190 610 q 185 563 189 575 q 178 539 181 551 q 172 526 175 532 q 164 510 168 519 m 31 503 q 7 453 7 474 q 20 427 7 433 q 52 430 33 421 q 85 468 71 439 q 49 476 63 468 q 31 503 35 483 m 149 594 q 76 538 100 579 q 74 526 74 532 q 81 515 74 521 q 103 508 89 507 q 124 521 118 510 q 138 546 132 532 q 149 572 144 560 q 150 581 151 575 q 149 594 149 586 z "},"p":{"ha":415,"x_min":-279,"x_max":433,"o":"m 44 453 q -37 367 -1 410 q -105 281 -74 325 q -165 191 -136 238 q -222 94 -193 144 q -231 83 -228 89 q -242 71 -235 78 q -255 64 -247 65 q -269 68 -262 63 q -278 81 -276 74 q -276 94 -279 88 q -264 117 -271 107 q -121 329 -187 221 q 14 546 -54 438 q 42 592 29 569 q 71 638 56 614 q 81 650 75 644 q 100 656 88 656 q 106 639 110 647 q 100 621 103 631 q 81 588 90 604 q 63 553 72 571 q 49 526 53 540 q 51 524 49 526 q 63 535 58 531 q 75 546 68 539 q 128 592 103 569 q 181 638 153 615 q 213 656 196 649 q 249 669 231 663 q 265 674 256 674 q 282 674 274 675 q 319 656 306 671 q 332 621 332 642 q 324 583 332 600 q 306 550 317 565 q 288 528 297 542 q 299 526 294 526 q 307 526 304 526 q 342 525 325 525 q 378 524 360 525 q 397 521 388 522 q 414 515 406 519 q 428 489 433 508 q 404 478 422 474 q 326 485 364 486 q 249 478 288 485 q 222 473 235 476 q 199 464 210 469 q 147 444 172 454 q 99 425 122 435 q 68 424 82 419 q 44 453 54 429 m 74 485 q 133 499 106 493 q 188 514 161 506 q 242 544 219 524 q 282 592 264 565 q 287 600 285 596 q 290 610 289 604 q 268 635 294 638 q 247 629 257 633 q 226 621 236 625 q 161 575 190 601 q 104 521 132 549 q 90 504 97 513 q 74 485 83 496 z "},"n":{"ha":438,"x_min":-60,"x_max":465,"o":"m 244 415 q 328 453 281 429 q 411 497 375 478 q 447 506 433 507 q 463 499 460 506 q 458 483 465 493 q 429 463 450 472 q 342 424 386 443 q 254 388 299 406 q 197 385 224 375 q 178 432 172 397 q 186 456 181 446 q 194 479 192 467 q 205 507 200 494 q 209 527 210 519 q 199 536 208 535 q 168 531 190 538 q 122 505 144 518 q 76 478 99 492 q 35 447 56 463 q -7 417 15 432 q -13 410 -10 414 q -22 404 -17 407 q -37 399 -29 401 q -53 404 -44 396 q -59 419 -60 411 q -53 433 -58 426 q -31 467 -42 450 q -10 500 -21 483 q 17 536 4 518 q 42 574 29 554 q 51 590 49 582 q 86 608 75 619 q 78 568 99 600 q 60 538 68 553 q 40 510 51 524 q 25 492 36 504 q 6 469 14 479 q -3 456 -3 458 q 13 468 -4 453 q 77 516 43 493 q 146 556 111 539 q 177 569 160 563 q 209 574 194 575 q 234 564 224 574 q 247 532 244 554 q 239 491 250 510 q 218 451 228 472 q 213 415 208 425 q 244 415 217 404 z "},"m":{"ha":596,"x_min":-46,"x_max":617,"o":"m 193 521 q 213 519 204 515 q 229 526 221 522 q 286 559 258 543 q 343 590 314 575 q 367 602 354 597 q 393 610 381 607 q 443 576 436 619 q 444 524 449 551 q 455 483 442 492 q 496 483 468 475 q 538 497 515 488 q 578 514 560 507 q 602 519 594 519 q 613 513 610 518 q 613 497 617 506 q 593 481 610 488 q 540 454 567 465 q 482 440 513 443 q 406 507 408 432 q 406 522 406 515 q 407 538 407 529 q 405 579 407 567 q 375 572 403 592 q 315 535 347 557 q 254 497 282 513 q 213 481 236 485 q 156 513 171 468 q 149 532 151 524 q 145 544 147 540 q 138 547 143 549 q 119 536 132 544 q 64 485 92 515 q 8 432 36 454 q -4 422 1 426 q -17 413 -10 417 q -37 415 -29 408 q -43 435 -46 421 q -33 457 -42 444 q -2 519 -18 489 q 32 582 14 550 q 35 591 33 586 q 40 599 38 596 q 50 604 44 601 q 60 604 56 607 q 69 588 69 601 q 65 574 67 581 q 60 561 63 568 q 52 546 57 556 q 42 526 47 536 q 32 505 36 515 q 28 489 28 494 q 42 501 33 493 q 59 519 50 510 q 76 537 68 528 q 92 550 85 546 q 108 561 100 557 q 125 569 117 565 q 189 539 172 589 q 191 530 190 535 q 193 521 192 525 z "},"a":{"ha":367,"x_min":-37,"x_max":389,"o":"m 379 492 q 333 460 364 476 q 270 436 301 443 q 215 438 239 429 q 192 482 192 446 q 193 505 192 493 q 197 531 194 517 q 127 487 161 508 q 57 446 93 465 q 38 438 49 439 q 18 435 28 436 q -25 453 -12 431 q -21 499 -37 475 q -8 514 -14 507 q 6 528 -3 521 q 85 575 42 560 q 178 586 128 590 q 207 597 196 583 q 226 617 217 607 q 244 636 235 626 q 251 644 247 640 q 260 650 256 649 q 270 651 264 651 q 281 649 276 651 q 286 628 288 639 q 275 600 285 617 q 258 566 271 592 q 240 515 246 540 q 239 474 233 490 q 276 468 244 458 q 313 483 293 472 q 351 503 332 493 q 363 509 357 506 q 375 511 368 513 q 385 502 382 508 q 379 492 389 496 m 14 475 q 99 506 54 482 q 171 558 143 531 q 83 533 129 556 q 14 475 38 511 z "},"b":{"ha":357,"x_min":-93,"x_max":400,"o":"m 3 439 q 33 468 18 454 q 65 497 49 482 q 126 551 94 526 q 194 599 158 575 q 224 613 210 607 q 247 617 236 617 q 269 607 258 617 q 281 586 281 597 q 279 563 282 575 q 273 544 276 553 q 267 525 269 536 q 288 519 281 522 l 336 519 q 347 519 343 519 q 358 518 351 519 q 375 494 378 514 q 353 481 371 481 q 313 482 333 482 q 272 485 292 482 q 240 481 254 486 q 213 461 226 476 q 175 424 197 440 q 126 399 153 407 q 63 436 74 382 q 61 442 63 439 q 58 451 60 444 q 30 424 43 438 q 4 399 17 411 q -26 368 -11 383 q -57 338 -42 353 q -69 331 -62 333 q -83 333 -75 329 q -92 344 -90 338 q -89 358 -93 351 q -75 392 -82 376 q -58 424 -68 407 q -22 487 -40 456 q 13 550 -4 518 q 22 565 17 558 q 21 582 26 571 q 26 594 21 592 q 70 640 54 614 q 104 692 86 665 q 186 808 144 751 q 276 919 228 865 q 305 949 290 935 q 336 978 319 963 q 349 988 343 983 q 363 994 354 992 q 376 994 369 996 q 389 989 383 993 q 399 978 397 986 q 397 963 400 969 q 381 928 389 944 q 363 896 374 911 q 307 828 335 861 q 250 764 279 796 q 187 697 219 729 q 121 632 154 665 q 75 574 96 604 q 40 517 57 546 q 6 458 24 488 q 3 450 3 454 q 0 442 3 446 q 1 440 0 440 l 3 439 m 142 517 q 167 519 154 518 q 194 519 181 519 q 230 540 217 522 q 240 581 243 557 q 186 555 210 572 q 142 517 163 538 m 172 478 q 124 468 142 479 q 106 436 106 457 q 143 449 125 438 q 172 478 161 460 m 282 864 q 269 850 281 863 q 244 820 258 838 q 213 783 229 803 q 183 747 196 764 q 163 718 169 729 q 158 706 156 707 q 208 760 176 725 q 274 833 240 796 q 334 901 307 871 q 369 943 361 932 q 358 938 376 954 q 282 864 340 922 z "},"c":{"ha":311,"x_min":-19,"x_max":326,"o":"m 297 479 q 278 469 292 475 q 185 435 232 450 q 89 417 139 419 q 65 415 78 414 q 39 418 51 415 q -6 451 7 426 q -4 508 -19 475 q 0 517 -1 513 q 4 526 1 522 q 63 584 31 561 q 138 617 94 607 q 164 620 150 621 q 190 615 178 619 q 217 587 211 608 q 208 549 224 565 q 201 544 206 546 q 192 542 197 542 q 188 547 189 542 q 183 554 186 551 q 174 582 181 576 q 146 582 167 588 q 86 553 113 572 q 40 508 60 533 q 31 490 35 501 q 49 457 22 463 q 92 456 68 451 q 164 468 129 458 q 231 493 199 478 q 257 504 244 499 q 283 513 269 510 q 322 509 318 521 q 297 479 326 497 z "},"d":{"ha":393,"x_min":-25,"x_max":415,"o":"m 90 265 q 113 275 104 272 q 128 285 122 278 q 183 328 156 306 q 238 374 211 350 q 303 431 268 401 q 367 490 338 461 q 394 509 382 504 q 410 510 406 514 q 410 494 415 506 q 389 467 406 483 q 274 353 332 408 q 150 253 217 299 q 130 240 140 246 q 108 232 119 235 q 67 236 85 224 q 54 274 50 249 q 61 306 57 290 q 72 338 65 322 q 113 422 92 379 q 154 507 133 465 q 158 517 157 513 q 160 528 160 521 q 148 518 153 522 q 138 510 143 514 q 47 440 92 472 q 32 434 40 438 q 15 429 24 431 q -14 436 -3 426 q -24 463 -25 446 q -18 482 -22 472 q -10 501 -14 492 q 35 544 10 526 q 92 572 61 561 q 133 582 114 582 q 163 592 150 585 q 188 611 176 600 q 266 712 231 660 q 338 818 301 764 q 343 828 340 822 q 350 838 346 833 q 386 856 371 864 q 386 813 404 846 q 367 786 376 800 q 351 760 358 772 q 233 569 289 664 q 128 374 176 474 q 106 325 115 350 q 90 265 96 300 m 22 474 q 99 532 78 496 q 54 510 75 525 q 22 474 33 496 z "},"e":{"ha":297,"x_min":-15,"x_max":332,"o":"m 276 510 q 289 515 283 513 q 301 519 294 517 q 325 510 318 522 q 317 486 332 493 q 210 446 265 460 q 99 429 154 432 q 58 429 79 428 q 19 439 36 431 q -7 463 1 447 q -8 507 -15 479 q 10 546 1 535 q 42 569 18 557 q 94 585 67 581 q 146 590 121 590 q 174 567 169 588 q 158 533 178 544 q 129 519 144 525 q 97 507 114 513 q 71 503 85 504 q 43 501 57 501 q 20 492 22 501 q 28 474 18 483 q 76 459 42 460 q 151 465 111 458 q 226 483 190 471 q 276 510 261 496 m 136 550 q 137 563 146 563 q 110 558 128 564 q 71 542 93 553 q 32 519 49 531 q 86 526 53 517 q 136 550 119 535 z "},"f":{"ha":397,"x_min":-129,"x_max":414,"o":"m 133 554 q 219 642 178 596 q 292 751 261 689 q 251 719 278 746 q 194 658 224 693 q 138 585 165 622 q 99 522 111 547 q 172 515 132 517 q 250 515 211 514 q 325 521 289 517 q 390 529 361 525 q 405 526 399 531 q 413 506 411 522 q 407 493 414 496 q 393 490 400 490 q 310 492 349 493 q 235 482 271 490 q 224 400 239 438 q 189 335 208 363 q 91 219 144 271 q -25 128 38 167 q -48 118 -36 122 q -74 110 -60 114 q -114 124 -99 106 q -125 174 -129 143 q -119 196 -122 185 q -110 218 -115 207 q -45 352 -78 285 q 13 472 -12 419 q -8 481 0 472 q -18 499 -17 489 q -12 518 -19 510 q 13 528 -4 526 q 32 528 25 529 q 44 528 39 528 q 54 533 50 529 q 65 549 58 538 q 149 668 106 615 q 246 774 193 721 q 260 788 253 781 q 276 800 268 794 q 286 807 282 804 q 296 813 290 810 q 326 805 313 818 q 336 769 339 792 q 331 743 333 756 q 321 719 328 731 q 255 624 290 668 q 175 549 219 581 q 157 540 167 542 q 133 554 147 538 m 199 481 q 158 477 181 476 q 115 478 136 478 q 78 477 94 479 q 54 465 61 475 q 40 443 49 458 q 24 410 32 428 q 8 378 15 393 q -3 354 1 363 q -42 268 -22 311 q -82 182 -61 225 q -85 172 -85 178 q -86 161 -85 165 q -82 154 -86 158 q -62 161 -72 158 q -42 168 -51 164 q 80 268 25 210 q 181 399 135 326 q 192 435 186 410 q 199 481 199 460 z "},"g":{"ha":414,"x_min":-385,"x_max":444,"o":"m 189 439 q 253 461 232 454 q 292 474 275 468 q 331 487 310 479 q 396 510 353 494 q 415 514 410 515 q 428 510 421 513 q 439 503 435 508 q 441 489 444 496 q 432 479 438 482 q 417 471 425 475 q 401 465 408 467 q 358 452 369 454 q 341 450 347 450 q 324 448 335 450 q 282 435 314 446 q 217 412 250 424 q 150 389 185 400 q 128 370 139 383 q 111 344 118 357 q 18 217 69 276 q -101 115 -33 158 q -191 68 -146 88 q -289 44 -236 49 q -339 49 -317 42 q -375 74 -365 54 q -371 117 -385 93 q -331 169 -356 146 q -283 206 -307 189 q -235 242 -258 224 q -97 318 -168 286 q 46 381 -25 350 q 97 407 74 389 q 132 450 119 425 q 161 513 156 485 q 169 540 167 540 q 125 513 151 532 q 82 485 99 493 q 53 472 67 476 q 24 463 39 467 q 3 460 13 457 q -15 472 -7 464 q -12 511 -26 492 q 4 533 -6 522 q 25 553 14 544 q 78 590 50 576 q 138 613 106 604 q 155 615 146 615 q 172 615 164 615 q 184 617 179 617 q 196 619 189 617 q 212 623 204 622 q 224 617 219 624 q 226 585 236 606 q 191 504 208 544 q 154 428 174 464 l 189 439 m -262 76 q -162 120 -212 90 q -65 189 -111 150 q 18 272 -19 228 q 79 361 56 317 q -8 327 42 350 q -108 275 -58 304 q -203 215 -158 246 q -278 160 -249 185 q -319 123 -303 142 q -335 90 -335 104 q -319 72 -336 76 q -262 76 -303 67 m 43 515 q 45 498 33 497 q 78 510 57 499 q 124 540 99 521 q 169 578 150 558 q 138 573 156 578 q 102 560 119 568 q 69 540 85 551 q 43 515 53 528 z "},"h":{"ha":381,"x_min":-87,"x_max":413,"o":"m 215 565 q 198 557 204 560 q 185 550 192 554 q 128 507 154 532 q 75 457 101 482 q 21 406 47 431 q -32 354 -6 381 q -42 345 -37 350 q -54 339 -47 340 q -69 337 -61 336 q -79 342 -76 338 q -85 352 -83 344 q -85 365 -87 360 q -80 385 -83 376 q -71 403 -76 393 q 35 592 -19 499 q 153 775 90 685 q 201 848 174 806 q 259 933 229 890 q 318 1016 289 976 q 372 1082 347 1056 q 390 1091 381 1092 q 404 1085 399 1090 q 411 1070 410 1079 q 404 1056 413 1061 q 317 941 363 1004 q 226 812 271 878 q 139 681 181 746 q 63 560 97 615 q 27 501 44 531 q -7 440 10 472 q 7 444 3 440 q 15 454 11 449 q 56 492 36 474 q 96 529 76 511 q 171 588 131 560 q 182 594 175 592 q 196 599 189 596 q 243 597 228 610 q 256 549 258 583 q 252 527 254 538 q 247 506 250 517 q 243 483 244 494 q 239 457 242 472 q 260 465 250 463 q 278 471 269 468 q 317 493 297 482 q 357 514 338 504 q 389 521 378 522 q 402 513 400 519 q 397 496 404 506 q 376 479 390 486 q 321 451 349 464 q 265 422 293 438 q 242 418 257 418 q 201 456 201 415 q 204 487 201 471 q 210 519 207 503 q 212 540 211 529 q 215 565 213 550 z "},"i":{"ha":186,"x_min":-17,"x_max":208,"o":"m 193 476 q 131 444 163 460 q 65 421 100 429 q 43 419 54 419 q 21 421 32 418 q -8 439 1 424 q -14 472 -17 454 q -12 496 -14 483 q -3 518 -10 508 q 26 574 13 543 q 57 628 39 604 q 74 637 64 636 q 91 631 83 638 q 100 613 99 625 q 90 588 101 601 q 63 544 76 565 q 35 500 49 524 q 23 458 21 471 q 37 442 25 444 q 67 444 49 439 q 103 460 85 450 q 139 480 122 469 q 163 499 156 490 q 188 515 176 514 q 203 509 199 515 q 207 492 208 503 q 193 476 206 482 m 160 739 q 177 732 171 739 q 181 715 183 725 q 165 692 178 704 q 139 671 153 679 q 112 663 119 660 q 110 692 104 665 q 124 724 113 708 q 160 739 136 739 z "},"j":{"ha":307,"x_min":-479,"x_max":338,"o":"m 19 411 q 38 419 29 415 q 57 426 47 422 q 165 477 110 454 q 278 517 219 500 q 306 525 293 524 q 320 524 313 526 q 331 513 328 521 q 318 483 338 496 q 311 481 315 482 q 301 476 307 479 q 135 416 215 453 q -22 335 56 379 q -44 317 -35 328 q -64 296 -54 307 q -139 193 -100 244 q -222 96 -178 142 q -297 26 -258 60 q -383 -32 -336 -8 q -418 -47 -403 -43 q -462 -39 -446 -54 q -472 4 -479 -24 q -443 53 -461 32 q -402 101 -424 78 q -357 146 -381 124 q -243 244 -301 199 q -119 328 -185 290 q -62 377 -85 349 q -21 439 -40 406 q -17 452 -18 446 q -15 465 -17 458 q -3 514 -15 493 q 25 554 8 535 q 46 567 35 565 q 64 563 57 569 q 76 548 72 558 q 72 525 79 538 q 51 482 63 503 q 29 438 40 461 q 23 426 26 432 q 17 414 19 421 q 19 411 17 414 m -124 274 q -164 258 -137 275 q -219 218 -190 242 q -273 171 -247 194 q -312 135 -299 147 q -369 81 -342 108 q -422 25 -396 53 q -432 10 -426 18 q -435 -12 -437 3 q -260 115 -333 40 q -124 274 -187 189 m 107 676 q 131 678 121 679 q 144 664 140 676 q 144 646 149 654 q 131 632 140 638 q 118 624 124 628 q 106 618 113 619 q 88 620 96 617 q 75 628 81 624 q 71 645 68 635 q 81 661 74 656 q 94 672 86 668 q 107 676 103 675 z "},"k":{"ha":397,"x_min":-137,"x_max":411,"o":"m 22 565 q 7 585 6 581 q 24 601 8 590 q 81 663 58 625 q 144 757 113 710 q 208 851 176 804 q 250 903 228 879 q 300 949 272 928 q 316 959 307 954 q 333 968 325 964 q 349 971 340 971 q 364 964 357 971 q 373 950 371 957 q 369 935 375 943 q 356 906 363 921 q 340 878 350 892 q 238 753 292 811 q 122 640 185 694 q 105 622 113 631 q 92 601 97 613 q 54 536 76 575 q 8 455 32 497 q -37 373 -15 413 q -74 307 -60 333 q -65 314 -75 304 q -40 340 -56 324 q -4 378 -24 357 q 33 418 15 399 q 64 454 50 438 q 83 478 78 471 q 79 492 79 486 q 78 511 72 503 q 96 519 83 519 q 139 530 121 519 q 175 551 157 540 q 225 582 200 567 q 275 613 250 597 q 307 622 289 622 q 329 613 317 622 q 326 589 339 601 q 303 569 315 576 q 249 539 275 553 q 197 510 224 525 q 183 501 190 504 q 165 493 175 499 q 200 478 182 481 q 236 474 218 475 q 290 478 264 471 q 342 497 315 485 q 361 506 351 501 q 381 515 371 511 q 396 519 389 518 q 411 521 403 519 q 383 479 407 493 q 268 438 328 444 q 146 458 208 431 q 128 463 135 464 q 113 454 122 461 q 6 350 57 403 q -90 239 -46 297 q -97 230 -93 235 q -107 222 -100 225 q -117 220 -110 221 q -128 222 -124 219 q -133 229 -131 224 q -135 240 -135 235 q -135 247 -137 243 q -132 256 -133 251 q -90 342 -111 300 q -49 429 -68 385 q -17 490 -33 460 q 15 549 0 519 q 19 556 18 553 q 22 565 19 560 m 151 700 q 225 774 189 735 q 288 847 261 814 q 324 898 314 879 q 319 911 335 917 q 283 879 307 904 q 235 822 260 854 q 187 756 210 790 q 151 700 164 722 z "},"l":{"ha":224,"x_min":-78,"x_max":390,"o":"m 22 304 q 112 401 67 350 q 193 489 157 453 q 240 518 229 526 q 215 463 251 510 q 140 378 181 417 q 58 301 99 340 q 35 282 47 290 q 11 265 22 274 q -1 259 6 263 q -15 253 -8 256 q -57 258 -42 246 q -75 297 -72 271 q -71 340 -78 319 q -38 443 -60 394 q 8 540 -17 492 q 28 575 17 560 q 39 599 35 588 q 32 622 43 611 q 39 633 36 631 q 80 667 65 644 q 110 710 94 689 q 190 823 150 767 q 279 928 231 879 q 315 960 296 944 q 340 976 322 969 q 360 982 350 981 q 379 976 369 983 q 390 958 389 968 q 385 938 390 947 q 370 908 378 922 q 353 879 363 893 q 257 770 308 821 q 150 671 206 719 q 118 639 133 656 q 89 603 103 622 q 35 503 61 553 q -12 401 8 454 q -23 365 -18 383 q -32 329 -28 347 q -34 296 -39 306 q -19 286 -29 286 q 2 292 -10 286 q 22 304 14 297 m 317 906 q 277 865 304 893 q 222 803 250 836 q 172 739 194 769 q 147 693 150 708 q 183 729 158 704 q 234 783 207 754 q 287 842 261 813 q 328 891 313 871 q 342 917 343 911 q 317 906 342 924 z "},"!":{"ha":269,"x_min":-4,"x_max":325,"o":"m 72 436 q 78 457 75 443 q 118 563 93 513 q 168 665 143 614 q 221 778 196 722 q 274 890 246 833 q 277 897 275 893 q 281 903 279 900 q 310 919 292 926 q 318 889 325 913 q 313 875 315 882 q 308 863 311 868 q 288 815 297 839 q 267 768 278 792 q 206 649 235 708 q 144 531 176 589 q 113 481 131 503 q 79 433 96 458 q 76 435 76 435 q 72 436 75 435 m 54 282 q 47 263 51 272 q 38 246 43 253 q 7 243 22 233 q 6 275 -4 258 q 26 296 13 286 q 43 300 33 303 q 54 282 47 296 z "},"\"":{"ha":419,"x_min":190,"x_max":338,"o":"m 235 972 l 239 976 q 249 985 243 983 q 259 984 254 986 q 267 976 264 982 q 267 965 269 971 q 246 920 257 942 q 224 876 235 899 q 200 869 210 857 q 197 900 190 882 l 235 972 m 303 972 l 307 976 q 317 985 311 983 q 327 984 322 986 q 335 976 332 982 q 335 965 338 971 q 314 920 325 942 q 292 876 303 899 q 268 869 278 857 q 265 900 258 882 l 303 972 z "},"#":{"ha":976,"x_min":19,"x_max":907,"o":"m 444 568 q 474 569 460 568 q 501 571 488 569 q 549 574 525 572 q 596 578 572 575 q 629 596 615 578 q 667 654 647 625 q 706 713 686 683 q 713 725 710 719 q 724 733 717 731 q 733 739 726 736 q 742 739 739 742 q 747 719 753 731 q 733 690 744 704 q 705 644 719 667 q 676 597 690 621 q 672 592 674 594 q 668 582 671 589 q 727 584 697 582 q 788 587 757 586 q 848 585 818 588 q 907 575 878 583 q 838 556 872 563 q 771 548 804 550 q 705 544 738 546 q 639 539 672 543 q 610 494 624 515 q 582 449 597 472 q 616 444 600 446 q 649 439 632 442 l 649 436 q 621 431 635 433 q 594 425 607 428 q 547 397 564 425 q 501 328 526 361 q 447 264 475 296 q 435 257 446 263 q 449 298 442 279 q 468 336 457 317 q 488 374 478 356 q 510 411 499 392 l 354 411 q 267 274 308 340 q 265 308 260 293 q 275 339 271 324 q 288 372 281 356 q 301 406 294 388 q 269 406 286 406 q 236 404 253 406 q 145 396 190 401 q 54 388 100 390 q 28 390 42 386 q 22 396 25 392 q 19 403 19 400 q 32 415 22 413 q 46 419 39 418 q 61 424 53 421 q 178 435 119 429 q 296 444 238 440 q 323 451 313 447 q 340 471 333 456 q 354 497 347 483 q 368 525 361 510 q 324 521 344 522 q 283 518 303 519 q 228 516 256 517 q 175 515 201 515 q 147 519 156 515 q 140 530 139 524 q 149 542 140 536 q 160 544 154 543 q 174 547 167 546 q 271 556 222 551 q 368 563 319 560 q 408 586 394 563 q 451 659 429 622 q 494 732 474 696 q 511 751 503 743 q 526 757 519 760 q 535 742 538 751 q 529 724 532 733 q 521 707 526 715 q 463 603 492 653 q 453 586 457 594 q 444 568 450 578 m 535 451 q 560 493 549 472 q 588 538 572 514 q 421 529 501 531 q 398 491 408 510 q 376 451 388 472 l 535 451 z "},"$":{"ha":571,"x_min":-87,"x_max":581,"o":"m 518 892 q 558 840 553 868 q 544 768 564 811 q 494 694 525 726 q 426 639 463 663 q 408 629 417 632 q 392 636 400 626 q 403 654 394 647 q 418 669 411 661 q 451 700 435 685 q 483 732 468 715 q 506 767 497 747 q 518 807 515 786 q 518 820 518 814 q 515 833 518 826 q 499 850 511 850 q 475 835 486 850 q 422 760 447 797 q 371 682 397 722 q 335 628 353 656 q 300 572 318 601 q 320 559 311 565 q 336 543 329 553 q 375 513 356 528 q 410 478 394 497 q 432 396 438 443 q 394 308 426 349 q 303 233 354 258 q 194 206 253 208 q 149 207 171 204 q 106 211 128 210 q 97 214 101 213 q 85 215 92 215 q 72 192 78 204 q 58 167 65 179 l 32 113 l 15 88 q 6 83 13 85 q -3 82 0 81 q -7 88 -6 83 q -8 97 -8 93 q -4 115 -6 107 q 0 133 -3 124 l 46 229 q 29 240 40 235 q -40 300 -14 264 q -85 381 -67 336 q -86 393 -87 390 q -83 406 -85 400 q -76 414 -81 411 q -67 416 -74 417 q -57 413 -60 415 q -46 399 -50 406 q -36 386 -42 393 q -19 356 -26 371 q 0 325 -11 340 q 68 272 24 292 q 156 414 113 343 q 246 557 200 485 l 226 579 q 208 601 217 590 q 194 624 200 613 q 185 699 176 660 q 229 772 194 739 q 297 824 261 803 q 369 860 333 844 q 412 874 390 868 q 454 888 433 881 q 485 907 475 892 q 508 936 497 922 q 531 965 519 950 q 541 978 536 971 q 553 988 546 985 q 562 992 556 990 q 571 992 568 994 q 575 972 581 986 q 569 960 574 965 q 561 950 564 956 l 518 892 m 278 538 q 188 399 231 467 q 108 260 146 331 q 138 251 121 254 q 175 247 156 247 q 214 248 194 246 q 250 254 233 250 q 353 318 310 272 q 391 397 389 358 q 361 468 393 436 q 321 502 342 486 q 278 538 300 518 m 435 843 q 359 815 394 832 q 290 776 324 797 q 270 760 279 768 q 250 742 261 751 q 225 674 219 711 q 240 631 228 649 q 271 597 251 613 l 435 843 z "},"%":{"ha":721,"x_min":21,"x_max":647,"o":"m 171 701 q 193 742 193 717 q 194 760 194 751 q 192 778 193 768 q 188 794 189 786 q 183 811 186 801 q 188 844 182 832 q 213 864 194 857 q 285 885 247 881 q 426 892 356 892 q 571 886 497 892 l 596 885 q 631 817 647 868 q 614 786 625 801 q 556 711 585 749 q 496 639 528 674 q 313 422 400 532 q 142 194 225 311 q 106 142 122 169 q 74 89 89 114 q 57 63 65 76 q 32 47 49 50 q 22 67 21 57 q 28 88 22 76 q 49 131 39 111 q 75 171 60 151 q 170 302 124 238 q 269 431 217 367 q 405 595 336 514 q 542 757 474 676 q 561 781 553 768 q 579 807 569 793 q 588 822 583 814 q 596 840 592 829 q 581 845 589 843 q 567 847 574 847 q 420 853 493 853 q 275 844 347 854 q 244 838 256 842 q 228 828 233 835 q 224 810 224 822 q 229 781 225 799 q 232 732 236 757 q 213 686 228 707 q 172 663 194 663 q 135 688 150 664 q 114 731 119 707 q 110 781 108 756 q 123 829 113 806 q 151 869 133 853 q 162 878 156 875 q 174 885 168 882 q 190 879 185 885 q 193 872 193 876 q 192 864 193 867 q 185 853 189 857 q 176 844 181 849 q 148 783 153 818 q 158 717 143 747 l 171 701 m 397 176 q 456 317 411 256 q 463 325 458 321 q 472 332 467 329 q 482 334 475 335 q 488 331 489 333 q 499 319 493 321 q 514 315 506 318 q 557 258 557 306 q 532 173 554 210 q 469 111 510 136 q 422 106 443 96 q 399 147 401 115 q 398 163 397 154 q 397 176 399 171 m 438 143 q 459 147 453 140 q 472 160 465 153 q 497 189 488 172 q 513 224 507 206 q 518 256 519 240 q 513 272 518 268 q 496 276 507 276 q 471 269 482 274 q 454 247 460 264 q 444 217 450 232 q 435 185 439 201 q 432 164 432 174 q 438 143 432 154 z "},"&":{"ha":829,"x_min":-76,"x_max":683,"o":"m 425 269 l 356 222 q 245 160 301 188 q 126 118 189 132 q 80 109 103 111 q 33 104 57 107 q 7 104 19 103 q -18 108 -6 106 q -62 143 -49 118 q -69 200 -76 168 q -58 231 -65 215 q -44 260 -51 246 q 20 356 -17 311 q 97 440 57 400 l 272 604 q 281 612 278 608 q 288 618 285 615 q 311 671 313 638 q 317 747 311 710 q 339 822 324 785 q 440 953 367 904 q 480 974 460 967 q 524 981 500 982 q 573 958 557 978 q 582 906 589 938 q 546 828 572 865 q 481 751 517 788 q 410 678 446 714 q 388 657 399 667 q 367 638 378 647 q 354 622 357 631 q 351 601 351 613 q 369 503 357 551 q 400 411 381 456 q 417 372 408 392 q 436 332 425 353 q 506 389 474 360 q 565 450 538 418 q 602 497 585 474 q 639 544 619 519 q 660 567 650 560 q 677 574 671 575 q 683 563 683 572 q 675 533 683 553 q 646 484 661 507 q 608 440 631 461 q 542 375 576 407 q 472 308 507 343 l 460 300 q 463 290 463 294 q 467 282 464 286 q 488 255 478 268 q 510 231 499 242 q 542 200 525 214 q 583 179 560 186 q 594 164 599 175 q 578 150 589 153 q 551 151 563 146 q 526 163 539 156 q 481 203 501 182 q 442 249 461 225 l 425 269 m 308 583 q 297 574 303 578 q 286 564 292 571 q 235 519 261 542 q 186 474 210 497 q 92 382 138 429 q 11 279 47 335 q -9 243 0 263 q -28 204 -18 224 q 0 149 -43 163 q 26 144 10 144 q 64 147 46 146 q 101 151 82 149 q 251 205 182 168 q 386 290 321 242 q 400 306 399 301 q 394 325 401 310 q 369 381 381 353 q 347 439 357 408 q 328 508 336 472 q 308 583 319 544 m 350 675 q 435 756 396 715 q 508 840 475 796 q 521 861 515 851 q 533 882 526 871 q 544 908 540 894 q 538 933 547 922 q 512 943 526 944 q 482 935 497 942 q 467 928 474 932 q 453 919 460 924 q 385 838 411 888 q 363 774 369 806 q 354 711 357 743 q 352 695 353 703 q 350 675 351 688 z "},"'":{"ha":272,"x_min":190,"x_max":269,"o":"m 235 972 l 239 976 q 249 985 243 983 q 259 984 254 986 q 267 976 264 982 q 267 965 269 971 q 246 920 257 942 q 224 876 235 899 q 200 869 210 857 q 197 900 190 882 l 235 972 z "},"(":{"ha":326,"x_min":-42,"x_max":624,"o":"m 174 8 q 160 -1 168 0 q 142 -3 151 -3 q 128 3 135 0 q 114 8 121 6 q 15 85 51 40 q -32 190 -22 129 q -32 308 -42 250 q -1 422 -22 365 q 135 671 51 557 q 335 885 218 785 q 440 967 385 929 q 556 1038 496 1004 q 572 1046 564 1042 q 592 1053 581 1050 q 606 1053 599 1056 q 617 1049 614 1051 q 619 1040 624 1044 q 610 1029 615 1035 q 603 1025 607 1026 q 597 1021 600 1024 q 204 694 360 892 q 99 540 144 619 q 26 372 54 460 q 6 228 3 301 q 143 36 10 100 q 163 26 154 32 q 174 8 171 21 z "},")":{"ha":488,"x_min":-235,"x_max":396,"o":"m 396 729 q 335 458 394 592 q 174 217 275 329 q 62 111 122 158 q -72 28 1 64 q -132 6 -101 14 q -194 -6 -162 -3 q -218 -4 -208 -8 q -227 0 -222 -3 q -232 7 -232 3 q -231 15 -235 10 q -224 22 -228 19 q -206 29 -217 29 q -109 53 -153 33 q -25 99 -65 72 q 200 313 114 186 q 278 433 244 371 q 333 564 313 496 q 358 753 361 660 q 314 942 354 847 q 296 976 307 960 q 275 1008 285 992 q 266 1021 271 1015 q 271 1033 261 1026 q 286 1034 278 1038 q 299 1025 294 1031 q 332 985 319 1007 q 354 940 344 964 q 396 729 396 838 z "},"*":{"ha":638,"x_min":290,"x_max":611,"o":"m 611 908 q 585 891 600 892 q 556 888 571 890 q 526 883 540 885 q 493 879 511 882 q 488 838 490 858 q 482 796 485 817 q 478 768 479 782 q 463 743 478 754 q 448 774 450 758 q 447 807 446 790 q 451 840 449 824 q 453 871 454 856 q 434 870 442 876 q 421 857 426 864 l 332 742 q 300 717 322 725 q 292 732 290 725 q 300 746 294 739 q 327 784 314 765 q 356 822 340 803 q 369 840 363 831 q 383 858 375 849 q 367 861 375 863 q 351 859 360 860 q 335 860 343 858 q 321 874 328 863 q 340 886 332 883 q 358 892 349 890 q 375 893 367 893 q 413 905 399 893 q 439 935 428 917 q 459 962 449 949 q 481 988 469 975 q 494 992 486 990 q 507 993 501 994 q 517 983 515 990 q 517 967 519 975 q 513 956 514 961 q 511 946 513 950 l 506 921 q 532 918 518 917 q 559 921 546 919 q 585 921 572 922 q 611 908 599 919 z "},"+":{"ha":354,"x_min":31,"x_max":293,"o":"m 204 546 q 226 543 214 542 q 251 545 239 544 q 274 544 263 546 q 293 532 285 542 q 273 515 283 517 q 251 511 263 513 q 228 509 240 510 q 204 508 217 508 q 185 504 193 508 q 172 489 178 500 l 122 399 q 108 378 115 385 q 86 363 101 371 q 81 379 78 369 q 88 399 83 389 l 135 486 q 138 492 136 489 q 142 503 139 496 l 68 494 q 56 494 61 494 q 43 494 50 493 q 36 501 39 496 q 31 508 33 506 q 37 515 33 511 q 44 521 40 519 l 108 533 q 122 535 115 535 q 136 536 129 536 q 164 543 154 535 q 181 567 174 551 q 214 618 194 594 q 222 628 217 624 q 231 631 228 632 q 240 622 240 628 q 238 610 240 617 q 229 595 233 603 q 222 579 225 588 q 213 563 218 571 q 204 546 208 556 z "},",":{"ha":214,"x_min":18,"x_max":81,"o":"m 78 442 q 79 419 81 433 q 73 392 78 406 q 61 366 68 378 q 46 350 54 354 q 35 347 42 347 q 26 349 29 346 q 21 357 24 351 q 21 367 18 363 q 37 404 28 386 q 54 442 46 422 q 67 449 64 449 q 78 442 71 449 z "},"-":{"ha":425,"x_min":49,"x_max":326,"o":"m 76 517 q 60 519 64 517 q 49 538 49 529 q 64 550 50 546 l 129 550 q 196 553 163 551 q 264 558 229 556 q 286 561 275 560 q 308 561 297 563 q 325 547 326 557 q 313 528 324 536 q 304 525 310 525 q 296 525 299 525 q 260 522 279 524 q 217 519 242 521 q 158 517 192 518 q 76 517 124 517 z "},".":{"ha":206,"x_min":38,"x_max":89,"o":"m 89 426 q 81 407 89 415 q 63 399 74 399 q 40 421 38 399 q 49 440 40 432 q 68 446 57 447 q 83 440 76 446 q 89 426 89 435 z "},"/":{"ha":582,"x_min":0,"x_max":719,"o":"m 672 1029 q 710 1034 701 1049 q 701 993 719 1019 q 660 936 682 967 q 614 875 638 906 q 567 815 590 844 q 526 760 544 785 l 206 313 l 39 63 q 28 51 33 57 q 15 39 22 44 q 2 56 0 47 q 8 72 4 65 q 39 130 24 101 q 72 185 54 158 q 201 372 135 281 q 333 557 267 464 q 475 758 404 658 q 619 957 546 857 l 672 1029 z "},";":{"ha":233,"x_min":18,"x_max":129,"o":"m 78 443 q 79 421 81 435 q 73 393 78 407 q 61 367 68 379 q 46 351 54 356 q 35 348 42 349 q 26 350 29 347 q 21 358 24 353 q 21 368 18 364 q 37 406 28 388 q 54 443 46 424 q 67 450 64 450 q 78 443 71 450 m 129 581 q 122 561 129 569 q 103 553 114 553 q 81 575 78 553 q 89 594 81 586 q 108 600 97 601 q 123 594 117 600 q 129 581 129 589 z "},"<":{"ha":546,"x_min":71,"x_max":471,"o":"m 181 460 l 322 429 q 347 421 335 426 q 368 401 360 415 q 346 391 357 394 q 324 390 335 388 q 222 413 272 401 q 119 438 171 424 q 102 444 111 439 q 85 453 93 449 q 72 475 74 464 q 82 497 71 486 q 118 519 96 510 q 222 566 171 543 q 326 613 274 589 q 376 636 351 624 q 426 660 401 649 q 457 671 442 668 q 464 669 460 671 q 471 664 468 667 q 471 656 471 661 q 469 646 471 650 q 462 638 467 642 q 451 632 457 635 q 392 601 421 617 q 332 571 363 586 q 235 527 283 547 q 138 486 186 507 q 133 483 135 485 q 126 475 132 481 l 181 460 z "},"=":{"ha":392,"x_min":24,"x_max":311,"o":"m 89 553 q 82 552 86 553 q 75 553 78 551 q 58 556 65 553 q 50 571 51 560 q 56 583 49 581 q 71 588 64 586 l 282 597 q 292 596 286 597 q 300 592 297 594 q 307 583 303 588 q 310 572 311 578 q 304 565 310 568 q 294 560 299 561 q 269 558 282 557 q 244 560 257 560 q 227 558 236 558 q 202 556 218 557 q 159 555 186 556 q 89 553 132 554 m 219 478 q 253 458 253 478 q 246 445 253 449 q 219 440 239 442 l 96 435 q 75 435 85 435 q 54 439 65 436 q 32 447 43 439 q 26 467 24 453 q 32 472 26 469 q 40 475 38 474 q 46 476 43 476 q 53 475 49 475 l 219 478 z "},">":{"ha":532,"x_min":53,"x_max":433,"o":"m 138 617 q 163 626 151 628 q 186 621 175 624 q 227 610 211 614 q 256 603 243 607 q 284 596 269 600 q 322 586 299 592 q 368 574 346 579 q 410 561 390 568 q 432 536 432 554 q 428 519 433 526 q 414 510 422 513 q 367 488 390 494 l 140 407 q 110 400 125 404 q 82 392 96 396 q 67 390 75 390 q 56 401 58 390 q 59 415 53 410 q 74 421 65 419 q 103 432 88 426 l 308 499 q 344 513 326 504 q 383 529 361 521 q 357 540 364 539 l 233 571 q 212 575 218 574 q 201 578 206 576 q 191 581 197 579 q 169 588 185 583 q 149 596 158 590 q 138 617 140 601 z "},"¢":{"ha":450,"x_min":0,"x_max":385,"o":"m 68 388 q 22 421 32 399 q 22 485 11 443 q 51 549 31 517 q 98 610 71 582 q 158 660 125 639 q 222 692 190 682 q 250 696 236 694 q 281 700 264 697 q 301 731 290 715 q 324 763 313 746 q 340 783 332 774 q 360 804 349 793 q 379 810 374 818 q 382 790 385 801 q 375 781 379 786 q 368 772 371 776 q 340 730 354 750 q 311 689 325 710 q 324 669 318 678 q 336 650 331 660 q 343 628 342 639 q 338 604 344 618 q 330 595 335 600 q 319 589 325 590 q 306 599 308 589 q 299 622 303 610 q 283 643 294 635 q 220 544 250 594 q 158 442 190 494 q 201 458 181 447 q 240 479 221 468 q 277 501 258 490 q 317 519 296 513 q 304 485 315 500 q 278 460 293 471 q 151 399 217 418 q 114 367 124 389 q 88 319 100 343 q 60 272 75 296 q 17 208 31 224 q 2 198 4 192 q 7 227 0 204 q 26 278 14 250 q 52 335 38 307 q 79 383 67 364 l 68 388 m 250 658 q 227 651 238 654 q 207 644 217 649 q 72 511 117 600 q 60 460 64 486 q 78 432 54 439 q 122 450 101 421 q 172 533 146 492 q 225 617 199 575 q 236 635 231 625 q 250 658 242 644 z "},"€":{"ha":681,"x_min":-6,"x_max":624,"o":"m 588 726 q 572 764 589 749 q 457 789 526 806 q 354 744 406 775 q 219 633 286 703 q 230 631 226 632 q 238 631 233 631 q 333 636 286 633 q 429 642 381 639 q 456 640 443 643 q 475 633 469 638 q 474 622 481 628 q 442 607 467 615 q 424 603 433 604 q 407 601 415 603 q 328 597 367 599 q 250 593 290 596 q 232 592 240 593 q 217 592 224 590 q 182 585 196 594 q 157 556 168 575 l 128 507 l 215 513 l 425 522 q 472 509 472 517 q 449 494 472 501 q 394 483 426 488 q 343 476 361 478 q 231 471 288 474 q 121 465 175 468 l 106 461 q 78 367 86 413 q 90 278 71 321 q 117 251 100 258 q 157 242 133 243 q 211 248 185 242 q 265 263 238 254 q 431 338 350 290 q 479 362 456 353 q 514 371 503 371 q 516 360 525 371 q 468 322 507 349 q 322 244 396 275 q 171 204 249 214 q 38 307 46 189 q 38 365 33 335 q 53 426 42 394 l 63 460 l 36 460 q 22 459 29 460 q 8 460 14 458 q -3 474 -6 463 q 2 483 -1 478 q 13 492 6 489 q 28 497 19 496 q 44 499 36 497 q 64 501 56 501 q 82 503 72 501 q 106 542 93 522 q 131 583 118 563 l 68 583 q 51 583 60 583 q 36 585 43 583 q 24 597 21 585 q 40 613 28 608 q 51 616 46 615 q 61 618 56 617 l 132 625 q 163 631 149 625 q 192 653 176 636 q 358 788 261 733 q 412 813 383 803 q 469 829 440 824 q 604 790 554 844 q 619 765 614 779 q 618 735 624 751 q 609 714 615 722 q 598 703 603 706 q 590 706 593 700 q 588 726 586 711 z "},"¥":{"ha":564,"x_min":4,"x_max":519,"o":"m 257 583 q 287 622 274 604 q 315 657 300 640 q 373 726 343 692 q 432 792 403 760 q 451 808 440 801 q 472 824 461 815 q 488 832 481 829 q 502 833 494 833 q 515 825 510 833 q 515 810 519 815 q 503 800 510 804 q 395 694 440 753 q 306 572 350 635 q 301 563 304 571 q 313 562 308 563 q 324 561 318 561 q 383 558 354 558 q 439 556 411 558 q 466 547 456 554 q 478 533 476 540 q 471 521 479 526 q 442 518 463 515 q 389 522 415 519 q 336 524 363 525 q 290 522 304 522 q 269 518 276 522 q 256 501 263 514 q 233 464 250 489 q 228 452 231 458 q 221 439 225 446 q 249 438 236 439 q 276 439 263 438 q 330 440 303 439 q 385 440 357 440 q 424 435 413 440 q 434 422 436 429 q 418 408 432 414 q 379 400 404 401 l 215 394 q 185 374 193 394 q 151 303 167 338 q 117 233 135 268 q 96 195 107 214 q 74 157 85 176 q 90 276 60 200 q 115 331 101 304 q 142 389 128 358 l 75 381 q 59 380 67 381 q 43 381 51 379 q 36 384 40 381 q 32 390 32 388 q 33 399 32 394 q 38 406 35 404 q 69 418 54 417 q 108 424 89 421 q 147 429 128 426 q 174 446 168 432 q 193 478 183 463 q 214 515 203 494 q 179 511 194 513 q 149 507 164 510 q 94 497 121 503 q 38 488 67 492 q 19 483 29 485 q 7 493 10 482 q 13 509 4 504 q 28 515 21 514 q 84 530 56 524 q 140 543 113 536 q 187 550 164 547 q 238 557 210 553 l 190 615 q 124 701 157 658 q 58 789 92 744 q 51 803 53 796 q 47 818 49 811 q 56 838 44 829 q 64 838 58 840 q 74 833 69 836 q 81 827 78 831 q 88 818 83 824 l 210 660 q 225 635 218 649 q 240 610 232 621 q 247 597 243 603 q 257 583 251 592 z "},"×":{"ha":400,"x_min":33,"x_max":258,"o":"m 258 433 q 228 442 242 435 q 203 459 215 450 q 181 477 192 468 q 156 493 169 486 l 79 436 q 67 428 72 433 q 54 421 61 424 q 45 421 50 419 q 38 425 40 422 q 34 434 35 428 q 36 443 33 440 q 44 456 39 450 q 56 465 50 461 q 90 492 74 479 q 125 518 106 504 q 108 533 117 526 q 93 546 100 539 q 80 556 86 551 q 81 571 74 561 q 96 578 88 581 q 111 569 104 575 l 158 542 q 203 568 182 553 q 257 582 225 583 q 230 545 247 558 q 194 517 213 532 q 214 498 203 506 q 235 482 225 490 q 251 463 244 474 q 258 433 258 451 z "},"÷":{"ha":428,"x_min":63,"x_max":335,"o":"m 286 542 q 305 539 296 540 q 324 533 314 538 q 333 528 332 533 q 331 518 335 524 q 320 508 328 513 q 301 504 313 504 q 203 506 253 506 q 106 508 154 506 q 72 513 89 508 q 66 519 69 515 q 63 526 63 524 q 66 533 64 529 q 71 539 68 538 q 93 543 81 543 q 142 542 118 542 q 190 543 167 543 q 238 540 214 540 q 286 540 261 540 l 286 542 m 196 439 q 200 433 197 436 q 203 426 203 429 q 196 410 203 417 q 179 404 189 403 q 165 421 161 408 q 174 435 165 429 q 196 439 183 440 m 203 593 q 197 597 200 592 q 193 607 193 603 q 198 618 193 614 q 210 619 203 622 q 222 604 229 614 q 203 593 215 594 z "},":":{"ha":233,"x_min":38,"x_max":129,"o":"m 129 581 q 122 561 129 569 q 103 553 114 553 q 81 575 78 553 q 89 594 81 586 q 108 600 97 601 q 123 594 117 600 q 129 581 129 589 m 89 442 q 81 422 89 431 q 63 414 74 414 q 40 436 38 414 q 49 455 40 447 q 68 461 57 463 q 83 456 76 461 q 89 442 89 450 z "},"”":{"ha":419,"x_min":190,"x_max":338,"o":"m 235 972 l 239 976 q 249 985 243 983 q 259 984 254 986 q 267 976 264 982 q 267 965 269 971 q 246 920 257 942 q 224 876 235 899 q 200 869 210 857 q 197 900 190 882 l 235 972 m 303 972 l 307 976 q 317 985 311 983 q 327 984 322 986 q 335 976 332 982 q 335 965 338 971 q 314 920 325 942 q 292 876 303 899 q 268 869 278 857 q 265 900 258 882 l 303 972 z "},"“":{"ha":419,"x_min":192,"x_max":339,"o":"m 332 900 q 329 869 339 882 q 306 876 319 857 q 283 920 294 899 q 263 965 272 942 q 263 976 260 971 q 270 984 265 982 q 281 985 275 986 q 290 976 286 983 l 294 972 l 332 900 m 264 900 q 261 869 271 882 q 238 876 251 857 q 215 920 226 899 q 194 965 204 942 q 194 976 192 971 q 202 984 197 982 q 213 985 207 986 q 222 976 218 983 l 226 972 l 264 900 z "},"’":{"ha":272,"x_min":190,"x_max":269,"o":"m 235 972 l 239 976 q 249 985 243 983 q 259 984 254 986 q 267 976 264 982 q 267 965 269 971 q 246 920 257 942 q 224 876 235 899 q 200 869 210 857 q 197 900 190 882 l 235 972 z "},"‘":{"ha":272,"x_min":192,"x_max":271,"o":"m 264 900 q 261 869 271 882 q 238 876 251 857 q 215 920 226 899 q 194 965 204 942 q 194 976 192 971 q 202 984 197 982 q 213 985 207 986 q 222 976 218 983 l 226 972 l 264 900 z "},"±":{"ha":354,"x_min":-29,"x_max":306,"o":"m 217 603 q 239 600 226 599 q 263 602 251 601 q 286 601 275 603 q 306 589 297 599 q 285 572 296 574 q 264 568 275 569 q 241 566 253 567 q 217 565 229 565 q 198 561 206 565 q 185 546 190 557 l 135 456 q 121 435 128 442 q 99 419 114 428 q 93 436 90 426 q 100 456 96 446 l 147 543 q 150 549 149 546 q 154 560 151 553 l 81 551 q 68 551 74 551 q 56 551 63 550 q 49 558 51 553 q 43 565 46 563 q 49 572 46 568 q 57 578 53 576 l 121 590 q 135 592 128 592 q 149 593 142 593 q 176 600 167 592 q 193 624 186 608 q 226 675 207 651 q 235 685 229 681 q 243 688 240 689 q 253 679 253 685 q 250 667 253 674 q 242 652 246 660 q 235 636 238 644 q 226 620 231 628 q 217 603 221 613 m 39 357 q 18 356 28 357 q -3 356 8 356 q -12 356 -7 356 q -21 358 -17 356 q -26 372 -29 364 q -21 386 -26 378 q -13 388 -18 388 q -6 389 -8 388 q 108 394 53 392 q 221 400 164 397 q 247 397 239 401 q 255 385 256 392 q 244 371 254 378 q 218 363 235 364 l 39 357 z "},"£":{"ha":713,"x_min":-122,"x_max":626,"o":"m 272 528 q 245 527 257 528 q 222 529 233 526 q 196 536 206 529 q 190 544 193 539 q 190 554 188 550 q 195 562 190 557 q 204 569 200 567 q 219 572 211 572 q 233 572 226 572 q 264 573 249 574 q 294 572 279 572 q 319 623 310 597 q 339 675 328 649 q 371 756 356 715 q 404 836 386 796 q 499 967 436 911 q 522 984 510 975 q 544 997 533 993 q 614 967 599 1024 q 600 868 625 918 q 577 831 590 849 q 550 796 564 813 q 535 780 544 785 q 518 783 526 775 q 516 800 511 790 q 526 817 521 810 l 557 857 q 571 889 565 872 q 576 924 576 906 q 536 946 581 975 q 494 905 513 929 q 458 854 475 881 q 424 787 438 822 q 397 715 411 751 l 350 579 l 439 579 q 487 582 463 579 q 535 585 511 585 q 576 578 561 585 q 588 564 588 574 q 575 547 589 554 q 533 533 551 533 q 440 530 486 531 q 350 528 394 529 q 325 522 336 528 q 306 501 314 517 q 244 415 278 453 q 169 343 210 376 q 160 334 165 338 q 150 328 154 331 q 151 322 151 326 q 163 321 157 321 q 172 321 168 321 q 278 323 228 328 q 378 299 329 318 q 473 294 426 283 q 568 338 519 304 q 613 365 600 363 q 626 358 626 368 q 614 330 625 347 q 586 299 603 313 q 379 247 486 219 q 338 256 358 250 q 297 268 317 263 q 167 269 232 281 q 35 235 101 258 q -14 218 10 228 q -61 197 -37 208 l -90 186 q -108 187 -100 185 q -119 200 -115 189 q -117 219 -122 208 q -101 238 -112 231 q -84 247 -93 243 q -67 256 -75 250 q -18 277 -43 267 q 31 300 7 288 q 154 387 97 338 q 257 507 211 436 q 263 515 260 510 q 272 528 265 519 z "},"@":{"ha":832,"x_min":-11,"x_max":700,"o":"m 539 649 q 524 660 532 656 q 503 654 515 665 q 507 632 510 643 q 499 610 504 621 q 489 590 494 600 q 489 569 483 581 q 512 571 503 565 q 529 583 521 576 q 604 686 582 626 q 628 765 621 725 q 629 846 636 806 q 519 911 613 928 q 426 882 469 903 q 343 833 383 861 q 246 744 289 793 q 168 642 203 696 q 100 523 129 583 q 53 399 71 463 q 40 341 44 369 q 38 282 35 313 q 47 238 38 260 q 157 163 71 167 q 259 174 211 160 q 350 217 307 189 q 618 472 519 322 q 636 507 629 489 q 654 543 643 525 q 658 553 657 547 q 664 563 660 558 q 674 569 667 565 q 683 571 681 572 q 699 553 696 567 q 698 540 700 546 q 693 526 696 533 q 654 452 678 488 q 603 383 631 417 q 501 279 556 328 q 383 190 447 231 q 192 125 294 135 q 54 158 107 121 q -6 271 1 196 q -3 351 -11 311 q 17 429 4 392 q 94 605 47 521 q 210 764 142 689 q 301 849 251 811 q 411 915 350 888 q 476 940 443 931 q 544 947 508 949 q 626 924 594 947 q 667 858 658 901 q 668 762 676 808 q 639 669 660 715 q 603 610 624 638 q 554 560 583 583 q 533 546 543 551 q 511 535 522 540 q 478 533 492 528 q 453 551 465 538 q 447 560 450 557 q 422 547 432 553 q 400 533 411 540 q 393 530 397 532 q 385 526 389 528 q 350 533 363 519 q 346 563 335 544 q 357 579 351 569 q 369 597 363 589 q 422 647 393 624 q 489 682 450 669 q 509 686 499 685 q 529 688 519 688 q 542 681 536 686 q 553 671 547 676 q 553 659 556 665 q 539 649 550 653 m 453 624 q 422 602 436 613 q 397 571 407 592 q 453 624 436 594 z "},"^":{"ha":417,"x_min":254,"x_max":432,"o":"m 261 840 q 257 862 254 854 q 265 876 260 869 q 285 903 275 890 q 304 928 294 915 q 338 972 321 950 q 369 1015 354 993 q 383 1031 376 1024 q 396 1046 389 1039 q 408 1052 401 1050 q 421 1050 415 1054 q 431 1028 431 1042 q 430 1017 432 1022 q 425 1007 428 1011 q 409 944 418 975 q 392 881 400 913 q 369 851 383 844 q 356 867 357 857 q 357 885 354 876 l 371 950 q 372 969 374 960 q 342 932 357 950 q 311 894 326 914 q 298 877 304 886 q 285 860 292 868 q 274 851 281 854 q 261 840 268 847 z "}}}
